<svg id="Layer_1" enable-background="new 0 0 512 512" height="512" viewBox="0 0 512 512" width="512" xmlns="http://www.w3.org/2000/svg"><g><path d="m256 22.002c-135.309 0-244.999 109.689-244.999 244.999 0 60.112 21.662 115.156 57.588 157.784 15.027 8.706 127.213 73.235 145.2 83.58 13.714 2.382 27.816 3.635 42.211 3.635 135.309 0 244.999-109.69 244.999-244.999s-109.69-244.999-244.999-244.999z" fill="#1c2e7a"/><path d="m339.709 181.36c-1.854-.381-3.68-1.047-5.409-2.045l-39.958-23.07c-1.734-1.001-3.227-2.254-4.486-3.674-46.901 74.407-86.654 121.458-116.589 151.815l92.332 53.308c11.593-40.945 32.961-98.608 74.11-176.334z" fill="#ffdd40"/><path d="m334.3 179.315-39.958-23.07c-1.734-1.001-3.227-2.254-4.486-3.674-46.901 74.407-86.654 121.458-116.589 151.815l40.84 23.579c35.215-47.29 62.013-94.186 74.834-116.453 13.715-23.821 30.034-13.252 38.052-5.529 4.018-7.979 8.243-16.176 12.716-24.624-1.854-.379-3.68-1.046-5.409-2.044z" fill="#ffb332"/><path d="m213.731 508.332c.729.127 1.454.265 2.185.386 17.354-31.396 30.112-65.134 37.861-100.299l-118.703-68.533c-26.621 24.331-49.49 52.301-68.018 83.086.504.61 1.022 1.208 1.532 1.813 15.003 8.691 126.961 73.089 145.143 83.547z" fill="#38c674"/><path d="m135.074 339.886c-26.621 24.331-49.49 52.301-68.018 83.086.504.61 1.022 1.208 1.532 1.813 5.715 3.311 25.498 14.704 48.804 28.119 8.057-14.477 16.843-27.603 24.172-37.776 7.373-10.236 15.395-19.998 24.098-29.13 5.771-6.054 11.421-12.302 16.939-18.672z" fill="#24b55e"/><path d="m205.625 457.122-88.565-51.133c-12.143-7.011-27.813-2.812-34.824 9.331l-8.732 15.125c9.877 11.021 20.735 21.141 32.44 30.224 11.765-7.943 26.954-8.548 39.383-1.372 12.418 7.169 19.488 20.611 18.506 34.758 13.591 5.523 27.783 9.872 42.461 12.897l8.663-15.005c7.01-12.144 2.811-27.815-9.332-34.825z" fill="#ffb332"/><path d="m117.06 405.988c-12.143-7.011-27.813-2.812-34.824 9.331l-8.732 15.125c9.877 11.021 20.735 21.141 32.44 30.224 8.065-5.445 17.739-7.439 27.031-5.845.668-1.748.467-3.755-.532-5.417-5.431-9.042-1.645-15.483 1.408-18.727 1.507-1.6 1.968-3.874 1.312-5.972-1.099-3.514-.761-6.144.267-8.113z" fill="#ff9100"/><path d="m146.37 457.489c-13.644-7.877-30.04-6.629-42.155 1.833 18.559 14.667 39.288 26.707 61.631 35.554 1.257-14.711-5.844-29.517-19.476-37.387z" fill="#ffdd40"/><path d="m132.69 478.737c-6.585-10.862-3.336-18.612-.426-22.58.733-.999 1.091-2.174 1.106-3.363-10.211-1.747-20.721.635-29.155 6.527 9.001 7.114 18.516 13.603 28.475 19.416z" fill="#ffb332"/><path d="m210.383 448.881-88.565-51.133c-16.718-9.654-38.171-3.903-47.824 12.813l-7.073 12.251c4.251 5.153 8.72 10.117 13.372 14.904l10.183-17.638c4.375-7.578 14.146-10.279 21.825-5.847l88.565 51.133c7.628 4.405 10.252 14.195 5.848 21.824l-10.128 17.543c6.451 1.607 13.003 2.956 19.644 4.04l6.967-12.066c9.652-16.719 3.903-38.173-12.814-47.824z" fill="#fcf0be"/><path d="m135.164 424.708c-2.463-7.879 2.271-11.336 5.894-12.792.935-.375 1.741-.962 2.384-1.684l-21.623-12.484c-16.718-9.654-38.171-3.903-47.824 12.813l-7.073 12.251c4.251 5.153 8.72 10.117 13.372 14.904l10.183-17.638c4.375-7.578 14.146-10.279 21.826-5.847l23.065 13.317c.146-.933.088-1.903-.204-2.84z" fill="#ffdd40"/><g><path d="m343.921 63.394-2.938 5.089c-7.334 12.703-2.982 28.946 9.721 36.28s28.945 2.982 36.28-9.721l2.938-5.09z" fill="#ffdd40"/></g><g><path d="m449.862 169.791-24.709-13.435c-4.449-2.419-6.094-7.985-3.675-12.435 2.417-4.448 7.984-6.097 12.434-3.674l24.709 13.435c4.449 2.419 6.094 7.985 3.675 12.435-2.422 4.454-7.995 6.089-12.434 3.674z" fill="#ffdd40"/></g><g><path d="m424.53 115.051c-1.435-4.856 1.338-9.956 6.194-11.391l26.972-7.971c4.853-1.436 9.956 1.338 11.391 6.193 1.435 4.856-1.338 9.956-6.194 11.391l-26.972 7.971c-4.803 1.423-9.941-1.287-11.391-6.193z" fill="#ffb332"/></g><g><path d="m400.683 200.541-7.971-26.973c-1.435-4.856 1.338-9.956 6.194-11.391 4.856-1.439 9.956 1.338 11.391 6.193l7.971 26.973c1.435 4.856-1.338 9.956-6.194 11.391-4.868 1.442-9.961-1.353-11.391-6.193z" fill="#ff7186"/></g><g><path d="m267.856 65.541-23.99-14.681c-4.318-2.643-5.677-8.287-3.034-12.607 2.642-4.319 8.286-5.676 12.606-3.035l23.99 14.681c4.319 2.643 5.677 8.287 3.034 12.607-2.625 4.291-8.258 5.693-12.606 3.035z" fill="#ffdd40"/></g><g><path d="m292.878 38.659-6.582-27.344c-1.186-4.922 1.845-9.874 6.768-11.059 4.919-1.181 9.874 1.846 11.059 6.769l6.583 27.344c1.185 4.922-1.845 9.874-6.768 11.059-4.943 1.186-9.879-1.861-11.06-6.769z" fill="#ff7186"/></g><g><path d="m230.767 102.056c-1.186-4.922 1.845-9.874 6.768-11.059l27.345-6.583c4.922-1.181 9.875 1.846 11.059 6.769 1.185 4.922-1.845 9.874-6.768 11.059l-27.345 6.583c-4.943 1.186-9.878-1.861-11.059-6.769z" fill="#ffb332"/></g><path d="m425.389 31.815-49.972-28.852c-4.801-2.772-10.94-1.127-13.712 3.674l-24.615 42.634c-2.772 4.801-1.127 10.939 3.674 13.711l49.972 28.851c4.801 2.772 10.94 1.127 13.712-3.674l24.615-42.634c2.771-4.8 1.127-10.938-3.674-13.71z" fill="#ffdd40"/><path d="m375.456 62.617 16.989-29.426c4.189-7.255 12.568-10.566 20.315-8.667l-37.343-21.56c-4.801-2.772-10.94-1.127-13.712 3.674l-24.615 42.633c-2.772 4.801-1.127 10.939 3.674 13.711l37.343 21.56c-5.517-5.758-6.84-14.67-2.651-21.925z" fill="#ffb332"/><g><path d="m332.96 181.636-39.958-23.07c-8.652-4.995-11.616-16.058-6.621-24.71s16.058-11.617 24.71-6.621l39.958 23.07c8.652 4.995 11.617 16.058 6.621 24.711-4.995 8.651-16.058 11.615-24.71 6.62z" fill="#49d88b"/></g><path d="m317.823 152.009c4.048-7.012 11.749-10.59 19.311-9.738l-26.043-15.036c-8.652-4.995-19.715-2.031-24.71 6.621s-2.031 19.715 6.621 24.71l26.043 15.036c-4.519-6.123-5.27-14.581-1.222-21.593z" fill="#24b55e"/><path d="m142.58 333.186c-3.082 2.668-6.103 5.398-9.09 8.159l119.814 69.174c.898-3.967 1.752-7.948 2.521-11.952 2.235-11.622 5.457-25.853 10.356-42.912l-91.426-52.785c-12.438 12.708-23.227 22.57-32.175 30.316z" fill="#ffb332"/><path d="m215.34 326.303-40.585-23.431c-12.438 12.706-23.227 22.568-32.175 30.314-3.082 2.668-6.103 5.398-9.09 8.159l47.736 27.56c12.051-13.81 23.473-28.236 34.114-42.602z" fill="#ff9100"/><ellipse cx="206.885" cy="352.571" fill="#ffdd40" rx="36.179" ry="36.179" transform="matrix(.22 -.976 .976 .22 -182.588 476.743)"/><path d="m214.896 329.917c1.656-1.163 2.514-3.186 2.087-5.164-.59-2.738-.239-4.956.596-6.74-15.785-4.9-33.414 1.553-42.026 16.47-9.99 17.304-4.062 39.43 13.242 49.421 1.952 1.127 3.968 2.041 6.018 2.769.41-2.882 1.847-5.002 3.083-6.334 1.15-1.24 1.55-2.985 1.152-4.629-6.487-26.757 8.94-40.943 15.848-45.793z" fill="#ffb332"/><g><path d="m206.809 397.909c-7.689 0-15.473-1.953-22.597-6.066-21.654-12.503-29.101-40.291-16.599-61.945 12.502-21.652 40.29-29.1 61.945-16.599 21.654 12.503 29.1 40.291 16.598 61.945-8.388 14.531-23.664 22.665-39.347 22.665zm.122-72.343c-9.343 0-18.44 4.843-23.438 13.5-7.446 12.898-3.011 29.45 9.887 36.897 12.898 7.449 29.45 3.012 36.896-9.887 7.446-12.898 3.011-29.45-9.886-36.897-4.242-2.448-8.881-3.613-13.459-3.613z" fill="#fcf0be"/></g><path d="m198.985 378.396c-1.916-.586-3.797-1.389-5.605-2.433-12.898-7.447-17.333-23.999-9.887-36.897 4.998-8.656 14.095-13.5 23.438-13.5 3.311 0 6.651.619 9.852 1.881.309-.849.398-1.775.2-2.695-1.587-7.36 3.615-10.974 6.807-12.463.597-.279 1.121-.67 1.557-1.138-20.925-9.345-46.029-1.526-57.734 18.746-12.502 21.654-5.056 49.443 16.599 61.945 3.954 2.283 8.114 3.876 12.345 4.864.029-.807-.119-1.626-.462-2.391-3.124-6.974-.347-11.66 1.803-13.978.52-.561.879-1.229 1.087-1.941z" fill="#ffdd40"/><g fill="#2a428c"><path d="m11.001 267.001c0 13.983 1.189 27.688 3.439 41.031 74.737 42.983 220.855-106.279 187.445-164.915-24.64-43.245-18.164-86.553-10.042-112.609-104.188 28.198-180.842 123.386-180.842 236.493z"/><path d="m500.999 267.001c0-12.245-.911-24.276-2.645-36.038-21.756 13.082-51.94 24.09-88.529 19.23-71.834-9.543-162.579 212.012-64.675 245.074 91.226-35.656 155.849-124.411 155.849-228.266z"/></g></g></svg>