<?xml version="1.0" encoding="iso-8859-1"?>
<!-- Generator: Adobe Illustrator 19.0.0, SVG Export Plug-In . SVG Version: 6.00 Build 0)  -->
<svg version="1.1" id="Capa_1" xmlns="http://www.w3.org/2000/svg" xmlns:xlink="http://www.w3.org/1999/xlink" x="0px" y="0px"
	 viewBox="0 0 512 512" style="enable-background:new 0 0 512 512;" xml:space="preserve">
<g>
	<path style="fill:#EDB59E;" d="M485.476,98.402c-2.911-5.723-9.911-8.004-15.634-5.094l-30.141,15.326
		c-0.998-4.808-2.066-9.905-2.917-13.841c-3.279-15.174-13.977-24.979-27.253-24.979c-23.4,0-42.071,0-62.543,0
		c-15.095,0-27.438,12.281-27.514,27.342l-0.224,27.897c-0.03,3.81,1.807,7.393,4.92,9.591l23.171,16.362v30.231h61.585v-88.17
		c0.22,0,0.427,0,0.605,0c3.002,0,4.377,5.958,4.524,6.637c2.2,10.182,5.898,28.339,5.936,28.521
		c1.538,7.556,9.852,11.507,16.663,8.044l43.728-22.233C486.106,111.126,488.387,104.127,485.476,98.402z M347.342,122.538
		l-4.788-3.382l0.176-21.85c0.011-2.338,1.923-4.24,4.261-4.24c0.109,0,0.228,0,0.352,0V122.538z"/>
	<path style="fill:#EDB59E;" d="M485.476,98.402c-2.911-5.723-9.911-8.004-15.634-5.094l-30.141,15.326
		c-0.998-4.808-2.066-9.905-2.917-13.841c-3.279-15.174-13.977-24.979-27.253-24.979c-23.4,0-42.071,0-62.543,0
		c-15.095,0-27.438,12.281-27.514,27.342l-0.224,27.897c-0.03,3.81,1.807,7.393,4.92,9.591l39.94,28.203
		c5.246,3.705,12.5,2.454,16.204-2.791c3.703-5.246,2.455-12.5-2.791-16.204l-34.971-24.694l0.176-21.85
		c0.011-2.338,1.923-4.24,4.261-4.24c7.717,0,54.94,0,62.543,0c3.002,0,4.377,5.958,4.524,6.637
		c2.2,10.182,5.898,28.339,5.936,28.521c1.538,7.556,9.852,11.507,16.663,8.044l43.728-22.233
		C486.106,111.126,488.387,104.127,485.476,98.402z"/>
</g>
<path style="fill:#783C28;" d="M389.093,157.68c-2.291,0-4.559-1.016-6.083-2.959c-2.63-3.356-2.04-8.208,1.316-10.836l94.007-73.65
	c3.355-2.628,8.208-2.04,10.838,1.316s2.04,8.208-1.316,10.838l-94.007,73.65C392.436,157.143,390.759,157.68,389.093,157.68z"/>
<path style="fill:#55879B;" d="M389.949,69.813c0.186,6.434-5.793,11.884-12.041,11.884c-6.696,0-11.662-5.429-12.028-11.884
	h-18.538v111.423h61.585V69.813H389.949z"/>
<path style="fill:#283162;" d="M347.36,180.997c-0.001,0.08-0.012,0.158-0.012,0.239v103.15c0,7.705,6.246,13.952,13.952,13.952
	c7.705,0,13.952-6.247,13.952-13.952v-103.15c0-0.081-0.011-0.159-0.012-0.239H347.36z"/>
<path style="fill:#23274A;" d="M426.445,212.977l-17.58-31.98h-31.843l23.411,42.588l2.891,61.457
	c0.359,7.644,6.84,13.644,14.592,13.281c7.697-0.363,13.643-6.895,13.281-14.593l-3.044-64.688
	C428.056,216.917,427.472,214.842,426.445,212.977z"/>
<path style="fill:#B48255;" d="M402.548,180.014c0.595-7.817,6.473-14.221,14.214-15.46c3.316-0.532,6.425-1.821,9.108-3.924
	c10.47-8.204,10.49-25.663,0.043-38.998c-10.447-13.335-27.404-17.494-37.875-9.291c-2.683,2.102-4.679,4.813-5.989,7.905
	c-3.062,7.232-10.666,11.396-18.414,10.101c-8.343-1.394-16.511,0.211-22.899,5.216c-14.188,11.116-14.215,34.776-0.058,52.845
	c14.156,18.07,37.135,23.706,51.324,12.59C398.392,195.994,401.906,188.448,402.548,180.014z"/>
<circle style="fill:#EDB59E;" cx="378.263" cy="38.035" r="24.097"/>
<g>
	<circle style="fill:#501E0F;" cx="394.232" cy="145.932" r="10.082"/>
	<path style="fill:#501E0F;" d="M367.231,186.435l-18.789-23.982c-2.103-2.685-1.632-6.567,1.053-8.67
		c2.685-2.103,6.567-1.632,8.67,1.053l18.789,23.982c2.103,2.685,1.631,6.567-1.053,8.67
		C373.21,189.596,369.33,189.115,367.231,186.435z"/>
	<path style="fill:#501E0F;" d="M484.148,96.173c-1.833,0-3.648-0.812-4.865-2.367l-14.087-17.981
		c-2.103-2.685-1.633-6.567,1.053-8.67c2.684-2.103,6.566-1.631,8.67,1.053l14.087,17.981c2.103,2.685,1.632,6.567-1.053,8.67
		C486.822,95.744,485.48,96.173,484.148,96.173z"/>
	<path style="fill:#501E0F;" d="M472.48,105.314c-1.833,0-3.648-0.812-4.865-2.367l-14.086-17.98
		c-2.103-2.685-1.631-6.567,1.053-8.67c2.685-2.103,6.567-1.632,8.67,1.053l14.086,17.98c2.103,2.685,1.632,6.567-1.053,8.67
		C475.155,104.884,473.812,105.314,472.48,105.314z"/>
</g>
<path style="fill:#EDB59E;" d="M377.525,143.85l-34.971-24.694l0.176-21.85c0.011-2.338,1.923-4.24,4.261-4.24h0.326V69.813h-0.326
	c-15.095,0-27.438,12.281-27.514,27.342l-0.224,27.897c-0.03,3.81,1.807,7.393,4.92,9.591l39.94,28.203
	c5.246,3.705,12.5,2.454,16.203-2.791C384.019,154.809,382.77,147.554,377.525,143.85z"/>
<path style="fill:#A66749;" d="M84.912,0.922c6.403-1.824,13.073,1.89,14.896,8.294L113.53,57.41l29.834,25.025
	c1.932-0.569,5.721-0.146,37.163-5.288c1.456-0.236,4.301-0.144,4.301-0.144s10.031,0.406,31.914,1.404l14.937-29.544
	c3.005-5.941,10.257-8.324,16.198-5.319c5.941,3.005,8.324,10.257,5.319,16.198l-18.451,36.497
	c-2.058,4.071-6.226,6.616-10.756,6.616c-0.18,0-0.361-0.004-0.542-0.012l-27.226-1.219l12.137,74.969l-63.035,10.206
	l-13.349-82.455l-36.923-31.03c-1.784-1.538-3.077-3.564-3.722-5.829L76.62,15.818C74.796,9.414,78.509,2.745,84.912,0.922z"/>
<path style="fill:#464D7F;" d="M150.117,226.853l-4.793-40.054l-0.657-4.055l28.551-5.003c0,0,0.633,2.115,0.763,3.249l5.463,47.655
	c0.377,3.292-0.386,6.612-2.164,9.408l-34.056,53.577c-2.756,4.337-7.438,6.708-12.223,6.708c-2.654,0-5.34-0.73-7.746-2.26
	c-6.742-4.286-8.734-13.227-4.448-19.969L150.117,226.853z"/>
<path style="fill:#3A4069;" d="M203.861,217.11l-31.604-39.263l32.537-5.721l25.761,32.005c2.64,3.278,3.72,7.544,2.96,11.683
	l-12.972,70.666c-1.281,6.976-7.365,11.858-14.212,11.857c-0.867,0-1.746-0.078-2.628-0.24c-7.859-1.442-13.06-8.983-11.617-16.84
	L203.861,217.11z"/>
<circle style="fill:#A66749;" cx="155.191" cy="47.149" r="24.986"/>
<path style="fill:#7EADFC;" d="M118.072,61.219l25.293,21.214c0.889-0.262,2.174-0.314,6.369-0.795
	c0.565,5.284,5.615,9.548,10.881,9.548c6.132,0,10.671-5.011,10.935-10.936c0.026-0.562-0.017-1.112-0.091-1.655
	c2.735-0.427,5.745-0.907,9.068-1.451c1.456-0.236,4.301-0.144,4.301-0.144s7.209,0.236,31.914,1.404l0.028-0.056v24.191
	l-20.549-0.919l12.137,74.969l-63.035,10.206l-13.349-82.455l-28.173-23.677L118.072,61.219z"/>
<path style="fill:#B9CDD2;" d="M269.543,58.514c-0.997,0.698-2.216,1.101-3.526,1.082l-48.628-0.673
	c-3.319-0.046-5.974-2.774-5.928-6.095c0.047-3.319,2.771-5.975,6.095-5.929l48.628,0.673c3.319,0.046,5.974,2.774,5.928,6.095
	C272.083,55.677,271.073,57.443,269.543,58.514z"/>
<circle style="fill:#B03128;" cx="217.586" cy="52.987" r="13.163"/>
<path style="fill:#B4D7DC;" d="M495.506,331.267H16.604c-9.109,0-16.493-7.385-16.493-16.493l0,0
	c0-9.109,7.385-16.493,16.493-16.493h478.902c9.109,0,16.494,7.385,16.494,16.493l0,0C512,323.883,504.615,331.267,495.506,331.267z
	"/>
<g>
	<circle style="fill:#703C22;" cx="337.902" cy="307.222" r="38.784"/>
	<path style="fill:#703C22;" d="M288.14,388.664v122.877h99.122V387.753l51.428-66.856c1.944-2.527,3.15-5.543,3.486-8.713
		l9.253-87.502c1.003-9.486-5.873-17.988-15.359-18.991c-9.483-0.999-17.987,5.873-18.99,15.358l-8.741,82.653l-42.748,55.573
		H307.38l-37.835-36.168l37.928-65.397c4.786-8.251,1.975-18.819-6.275-23.604c-8.251-4.785-18.819-1.974-23.604,6.275
		l-44.746,77.154c-4.001,6.898-2.759,15.638,3.006,21.148L288.14,388.664z"/>
</g>
<path style="fill:#DD3E3E;" d="M288.14,511.541h99.122V387.753l31.655-41.151l-30.127-17.484l-23.199,30.158h-13.13
	c-4.173,4.481-10.16,7.357-16.286,7.357c-6.566,0-12.204-2.88-16.132-7.357h-12.664L278.8,331.956l-25.386,23.514l34.725,33.195
	v122.877H288.14z"/>
<g>
	<circle style="fill:#EDB59E;" cx="107.363" cy="306.109" r="38.784"/>
	<path style="fill:#EDB59E;" d="M6.562,308.993c0.23,2.831,1.155,5.562,2.693,7.95l48.111,74.708
		c0.076,0.118,0.159,0.228,0.237,0.343v119.548h99.122V390.599l53.618-69.703c1.944-2.527,3.15-5.543,3.486-8.713l9.254-87.502
		c1.003-9.484-5.872-17.987-15.359-18.99c-9.479-1.008-17.987,5.872-18.99,15.358l-8.741,82.653l-42.748,55.573H77.599
		L40.636,301.88l-6.15-75.561c-0.775-9.507-9.109-16.575-18.616-15.812c-9.506,0.773-16.585,9.108-15.812,18.615L6.562,308.993z"/>
</g>
<path style="fill:#23274A;" d="M9.255,316.943l48.111,74.708c0.076,0.118,0.159,0.228,0.237,0.343v119.548h99.122V390.599
	l53.618-69.703c1.944-2.527,3.15-5.543,3.486-8.713l3.543-33.498l-34.344-3.674l-3.035,28.69l-42.748,55.573H122.28
	c-4.18,4.586-10.243,7.543-16.452,7.543c-6.656,0-12.362-2.958-16.296-7.543H77.599l-36.963-57.396l-2.187-26.867l-34.655,3.924
	l2.768,30.058C6.792,311.824,7.717,314.555,9.255,316.943z"/>
<g>
</g>
<g>
</g>
<g>
</g>
<g>
</g>
<g>
</g>
<g>
</g>
<g>
</g>
<g>
</g>
<g>
</g>
<g>
</g>
<g>
</g>
<g>
</g>
<g>
</g>
<g>
</g>
<g>
</g>
</svg>
