<svg height="512" viewBox="0 0 128 128" width="512" xmlns="http://www.w3.org/2000/svg"><g><path d="m113.562 126.25-49.562-20.016-49.562 20.016v-124.503h99.124z" fill="#f37"/><path d="m64 97.606-41.563 16.786v-112.645h83.125v112.645z" fill="#eff4f9"/><path d="m67.38 21.771 8.7 17.635 19.463 2.828a3.769 3.769 0 0 1 2.088 6.429l-14.08 13.728 3.325 19.383a3.769 3.769 0 0 1 -5.469 3.973l-17.407-9.147-17.407 9.147a3.769 3.769 0 0 1 -5.469-3.973l3.324-19.383-14.082-13.728a3.769 3.769 0 0 1 2.088-6.429l19.462-2.828 8.7-17.635a3.769 3.769 0 0 1 6.764 0z" fill="#54528e"/><path d="m64 67.557-13.542 7.12 2.586-15.08-10.955-10.679 15.14-2.2 6.771-13.719 6.771 13.719 15.14 2.2-10.955 10.679 2.586 15.08z" fill="#fff06d"/></g></svg>