<svg height="512pt" viewBox="-8 0 512 512" width="512pt" xmlns="http://www.w3.org/2000/svg"><path d="m438.628906 195h-180.21875v120h180.613282c5.367187 0 10.503906-2.15625 14.265624-5.980469l37.796876-38.460937c7.464843-7.59375 7.667968-19.710938.457031-27.554688l-38.191407-41.539062c-3.785156-4.121094-9.125-6.464844-14.722656-6.464844zm0 0" fill="#d20041"/><path d="m58.191406 195h180.21875v-120h-180.613281c-5.367187 0-10.503906 2.15625-14.265625 5.980469l-37.796875 38.460937c-7.464844 7.59375-7.667969 19.710938-.457031 27.554688l38.191406 41.539062c3.785156 4.121094 9.125 6.464844 14.722656 6.464844zm0 0" fill="#74dc82"/><path d="m258.410156 0h-20c-11.046875 0-20 8.953125-20 20v472c0 11.046875 8.953125 20 20 20h20c11.046875 0 20-8.953125 20-20v-472c0-11.046875-8.953125-20-20-20zm0 0" fill="#cf957a"/><path d="m258.410156 0h-10v512h10c11.046875 0 20-8.953125 20-20v-472c0-11.046875-8.953125-20-20-20zm0 0" fill="#b27861"/></svg>