<svg id="Capa_1" enable-background="new 0 0 512 512" height="512" viewBox="0 0 512 512" width="512" xmlns="http://www.w3.org/2000/svg"><g><g><g><path d="m383.613 76.612c-42.73-39.317-99.097-60.821-157.161-60.233-21.285.216-42.205 3.333-62.401 9.284l-12.188-20.562c-4.085-6.892-14.098-6.777-18.024.207l-43.352 77.124c-3.925 6.983 1.18 15.596 9.19 15.505l88.468-1.006c8.011-.091 12.919-8.82 8.834-15.712l-10.865-18.332c13.15-3.066 26.633-4.707 40.311-4.879 102.115-1.283 187.04 80.323 189.654 182.413 2.702 105.511-82.342 192.206-187.254 192.206-100.007 0-181.96-78.777-187.065-177.536-.283-5.479-4.793-9.781-10.279-9.781h-21.051c-5.871 0-10.57 4.901-10.301 10.766 2.603 56.624 25.713 109.516 65.767 150.075 41.771 42.299 98.584 66.815 158.019 68.052 63.108 1.313 122.64-22.703 167.065-67.27 42.811-42.948 66.79-100.983 66.789-161.624-.001-64.422-26.429-124.782-74.156-168.697z" fill="#9d66d5"/><path d="m404.824 98.866c18.406 33.902 28.861 72.748 28.861 114.037 0 132.189-107.16 239.35-239.35 239.35-35.925 0-69.993-7.93-100.572-22.11 37.622 27.475 83.06 43.082 130.151 44.061 63.108 1.313 122.64-22.703 167.065-67.27 42.811-42.948 66.789-100.982 66.789-161.622 0-54.136-18.667-105.397-52.944-146.446z" fill="#8659b9"/></g></g><g><path d="m489.884 460.42-29.582 29.582c-4.023 4.023-10.546 4.023-14.569 0l-19.206-19.206 44.151-44.151 19.206 19.206c4.023 4.023 4.023 10.546 0 14.569z" fill="#2b4d66"/><path d="m511.882 489.777v11.922c0 5.69-4.612 10.302-10.302 10.302h-11.922c-2.732 0-5.353-1.085-7.284-3.017l-20.526-20.526 26.491-26.491 20.526 20.526c1.932 1.931 3.017 4.551 3.017 7.284z" fill="#4a80aa"/><circle cx="363.244" cy="363.362" fill="#9dc6fb" r="124.878"/><path d="m438.763 263.908c15.95 20.973 25.424 47.138 25.424 75.519 0 68.968-55.91 124.878-124.878 124.878-28.382 0-54.547-9.474-75.519-25.424 22.809 29.992 58.867 49.359 99.454 49.359 68.968 0 124.878-55.91 124.878-124.878 0-40.587-19.368-76.645-49.359-99.454z" fill="#80b4fb"/><circle cx="363.244" cy="363.362" fill="#e4f6ff" r="91.577"/><path d="m418.546 290.369c11.66 15.367 18.584 34.525 18.584 55.302 0 50.577-41.001 91.577-91.577 91.577-20.777 0-39.935-6.924-55.302-18.584 16.723 22.039 43.194 36.275 72.993 36.275 50.577 0 91.577-41.001 91.577-91.577 0-29.799-14.236-56.27-36.275-72.993z" fill="#d3effb"/></g><g><path d="m228.825 232.224c-4.267 0-7.726-3.459-7.726-7.726v-124.878c0-4.268 3.459-7.726 7.726-7.726s7.726 3.459 7.726 7.726v124.878c.001 4.268-3.459 7.726-7.726 7.726z" fill="#dd636e"/></g><g><path d="m208.012 253.037h-83.252c-4.267 0-7.726-3.459-7.726-7.726s3.459-7.726 7.726-7.726h83.252c4.267 0 7.726 3.459 7.726 7.726s-3.459 7.726-7.726 7.726z" fill="#dd636e"/></g><circle cx="228.825" cy="245.311" fill="#f6e781" r="24.724"/></g></svg>