<svg id="Layer_1" enable-background="new 0 0 128 128" height="512" viewBox="0 0 128 128" width="512" xmlns="http://www.w3.org/2000/svg"><path d="m119.819 75.937c-.052-.071-.106-.137-.173-.19-2.225-2.325-5.041-4.072-8.211-4.996-.021-.008-.036-.027-.058-.033-.191-.055-.387-.099-.581-.148-.009-.003-.016-.01-.026-.013-.034-.008-.069-.012-.103-.02-.19-.046-.38-.091-.572-.132-.061-.013-.122-.027-.184-.039 3.344-1.951 5.841-5.182 6.826-9.021.093.01.182.035.278.035 1.701 0 3.034-1.701 3.034-3.872 0-1.026-.305-1.939-.799-2.626v-9.09c0-3.532-2.122-6.572-5.155-7.928-1.149-3.999-5.882-7.005-11.534-7.005-5.653 0-10.385 3.006-11.534 7.005-3.034 1.356-5.156 4.396-5.156 7.928v9.091c-.493.686-.798 1.598-.798 2.624 0 2.171 1.333 3.872 3.034 3.872.095 0 .184-.024.277-.035.985 3.84 3.482 7.071 6.826 9.021-.061.012-.122.026-.184.039-.193.041-.384.086-.575.132-.033.008-.068.011-.101.02-.009.002-.016.01-.025.013-.194.049-.391.093-.581.148-.022.006-.036.025-.058.033-2.55.743-4.872 2.016-6.842 3.698-.309-.644-.646-1.179-.948-1.592l1.81-.934c.342-.177.553-.534.541-.919-.013-.385-.244-.729-.597-.884-.029-.013-2.963-1.343-3.641-4.831-.274-1.411.008-3.396.334-5.693.521-3.674 1.17-8.248-.377-12.459-2.799-7.619-7.614-10.823-9.821-11.942-.063-.091-.126-.182-.201-.263-1.454-1.58-4.947-1.875-6.899-1.909-3.352-.057-7.354.53-8.788 1.981-.105.106-.199.218-.285.334-2.533 1.351-6.907 4.608-9.548 11.799-1.544 4.204-.899 7.882-.381 10.837.328 1.873.611 3.49.338 4.899-.71 3.654-3.193 6.047-3.217 6.069-.271.256-.378.642-.276 1 .101.359.394.632.759.708l.86.178c-.465.868-1.055 2.121-1.483 3.551-.955-.799-1.989-1.507-3.093-2.103-.019-.012-.04-.018-.059-.029-1.293-.693-2.682-1.22-4.134-1.593-.031-.011-.053-.037-.085-.045-.115-.029-.235-.041-.35-.068-.171-.039-.337-.088-.509-.123 3.341-1.949 5.837-5.177 6.823-9.012.093.011.186.025.279.025 1.701 0 3.034-1.701 3.034-3.872 0-1.894-1.014-3.428-2.402-3.79v-8.449c0-6.29-5.099-11.388-11.388-11.388h-.312c.157-.397.36-.85.604-1.247.481-.781 1.535-1.79 1.535-1.79s-2.239-.226-4.202.403c-1.962.629-3.271 1.711-3.271 1.711s.152-.927.509-1.792c.434-1.05 1.302-2.208 1.302-2.208s-3.006.165-6.114 1.736c-3.359 1.698-8.836 6.114-8.836 13.976v.601 1.308 7.14c-1.388.362-2.402 1.896-2.402 3.79 0 2.171 1.333 3.872 3.034 3.872.094 0 .186-.014.279-.025.986 3.836 3.482 7.063 6.823 9.012-.173.035-.34.084-.511.123-.115.026-.234.039-.348.067-.032.008-.055.034-.086.045-1.451.372-2.841.899-4.133 1.592-.02.011-.042.018-.062.03-1.715.927-3.258 2.125-4.595 3.523-.067.054-.121.119-.173.191-3.083 3.313-4.987 7.74-4.987 12.612v11.389c0 1.654 1.346 3 3 3l111.61-.053c1.654 0 3-1.346 3-3v-11.388c.001-4.872-1.902-9.298-4.985-12.612z" fill="#e6e7e8"/><path d="m109.238 34.595c-.763-3.808-5.246-6.736-10.679-6.736s-9.915 2.927-10.679 6.736c-2.924 1.087-5.011 3.895-5.011 7.197v9.448c.343-.374.769-.605 1.236-.605.287 0 .557.091.803.243v-5.071c0-2.837 1.676-5.276 4.089-6.4 1.809 2.507 5.41 4.218 9.563 4.218s7.753-1.711 9.563-4.218c2.413 1.124 4.089 3.563 4.089 6.4v5.07c.247-.152.516-.243.803-.243.467 0 .892.231 1.236.605v-9.449c-.001-3.3-2.089-6.108-5.013-7.195z" fill="#d4fbff"/><path d="m113.014 50.636c-.285 0-.556.084-.803.234v2.843c0 .777-.08 1.534-.205 2.275.298.242.639.391 1.008.391 1.124 0 2.034-1.286 2.034-2.872s-.911-2.871-2.034-2.871z" fill="#fff"/><path d="m84.909 53.714v-2.844c-.247-.15-.518-.234-.803-.234-1.124 0-2.034 1.286-2.034 2.872s.911 2.872 2.034 2.872c.369 0 .71-.149 1.008-.391-.125-.742-.205-1.498-.205-2.275z" fill="#fff"/><path d="m102.257 67h-7.39c-4.466 0-8.526 1.68-11.622 4.423.305.848.539 1.828.599 2.949.066 1.238-.337 2.498-.846 3.573.795 2.064 1.249 4.296 1.249 6.637v13.358h35.561v-13.39c-.001-9.69-7.861-17.55-17.551-17.55z" fill="#fff"/><path d="m102.257 70h-7.39c-4.199 0-8.047 1.477-11.066 3.933.014.146.035.287.043.438.066 1.238-.337 2.498-.846 3.573.795 2.064 1.249 4.296 1.249 6.637v13.359h35.561v-10.39c-.001-9.69-7.861-17.55-17.551-17.55z" fill="#0089ef"/><path d="m103.016 67.033c.492.021.979.063 1.459.123-.48-.061-.966-.102-1.459-.123z" fill="#fa759e"/><path d="m105.087 67.249.003-.019c-.088-.014-.179-.02-.268-.032.09.013.176.037.265.051z" fill="#fa759e"/><path d="m99.221 70.437-.148.094c-.156.1-.335.149-.513.149s-.356-.05-.513-.149l-.149-.095-3.987 4.281-1.093-2.367 1.626 10.547v15.041h8.23v-15.041l1.626-10.547-1.093 2.367z" fill="#fa759e"/><path d="m90.594 67.533c-.192.048-.386.092-.576.147l-2.454 7.384 4.153 2.097-1.384 3.195 4.112 7.086v-4.545l-1.626-10.547z" fill="#6dc9f7"/><path d="m109.555 75.064-2.454-7.384c-.19-.054-.384-.099-.576-.147l-2.224 4.818-1.626 10.547v4.545l4.112-7.086-1.384-3.195z" fill="#6dc9f7"/><path d="m102.818 67.016-4.258 2.71 4.648 4.991 3.32-7.19c-1.193-.298-2.435-.471-3.71-.511z" fill="#fa759e"/><path d="m90.592 67.528 3.32 7.19 4.648-4.991-4.258-2.71c-1.276.039-2.517.212-3.71.511z" fill="#fa759e"/><path d="m98.56 67.365c-1.83 0-3.575-.363-5.17-1.016v.084l5.17 3.294 5.175-3.294v-.086c-1.596.654-3.343 1.018-5.175 1.018z" fill="#fff"/><path d="m108.122 39.408c-1.809 2.507-5.41 4.218-9.563 4.218s-7.753-1.711-9.563-4.218c-2.413 1.124-4.089 3.563-4.089 6.4v7.905c0 7.539 6.112 13.651 13.651 13.651s13.651-6.112 13.651-13.651v-7.905c.002-2.837-1.674-5.276-4.087-6.4z" fill="#fff"/><path d="m39.894 50.689c-.285 0-.556.084-.803.234v2.843c0 .779-.069 1.541-.194 2.284.296.237.633.383.997.383 1.124 0 2.034-1.286 2.034-2.872s-.91-2.872-2.034-2.872z" fill="#fff"/><path d="m11.789 53.767v-2.843c-.247-.15-.518-.234-.803-.234-1.124 0-2.034 1.286-2.034 2.872s.911 2.872 2.034 2.872c.364 0 .701-.146.997-.383-.125-.744-.194-1.506-.194-2.284z" fill="#fff"/><path d="m39.754 97.97v-13.388c0-2.532.513-4.947 1.436-7.148-.318-.757-.577-1.587-.677-2.439-.139-1.191-.022-2.397.228-3.533-3.094-2.735-7.149-4.408-11.603-4.408h-7.396c-9.691 0-17.548 7.856-17.548 17.548v13.388h35.564c0-.007-.004-.013-.004-.02z" fill="#fff"/><path d="m39.754 97.97v-13.388c0-2.532.513-4.947 1.436-7.148-.318-.757-.577-1.587-.677-2.439-.14-1.194-.021-2.404.23-3.542-1.018-.899-2.135-1.689-3.343-2.335-.839 5.863-5.869 10.373-11.961 10.373s-11.116-4.504-11.961-10.367c-5.525 2.953-9.281 8.774-9.281 15.476v13.393h35.562c0-.008-.005-.015-.005-.023z" fill="#0089ef"/><path d="m25.578 69.979h-.275l-2.445 3.547 1.126 2.928h2.912l1.127-2.928z" fill="#fa759e"/><path d="m25.44 79.494c.576 0 1.139-.05 1.694-.128l-.237-2.912h-2.913l-.237 2.912c.554.078 1.117.128 1.693.128z" fill="#fa759e"/><path d="m25.44 67.418c-7.539 0-13.651-6.112-13.651-13.651v-3.318c0-1.927.539-3.815 1.557-5.45l3.489-5.608c1.383-1.891 3.585-3.01 5.928-3.01h5.355c2.343 0 4.545 1.118 5.928 3.01l3.489 5.608c1.018 1.636 1.557 3.524 1.557 5.45v3.318c-.001 7.539-6.113 13.651-13.652 13.651z" fill="#fff"/><path d="m29.698 67.069-4.258 2.71 3.44 4.991 4.527-7.19c-1.192-.298-2.433-.471-3.709-.511z" fill="#d4fbff"/><path d="m17.472 67.58 4.528 7.19 3.44-4.991-4.258-2.71c-1.275.04-2.517.213-3.71.511z" fill="#d4fbff"/><path d="m25.44 67.418c-1.83 0-3.575-.363-5.17-1.016v.084l5.17 3.294 5.175-3.294v-.086c-1.596.654-3.343 1.018-5.175 1.018z" fill="#fff"/><path d="m80.416 80.162-2.113-1.812s-.388 1.484-1.377 2.818-2.958 2.164-2.958 2.164.46-3.874-1.503-6.843c-1.484-2.245-4.581-3.656-5.054-9.368-.564-.055-1.136-.087-1.714-.087h-7.396c-.645 0-1.28.04-1.907.108-.582 6.075-3.716 6.562-5.012 9.747-1.026 2.522.755 6.141.755 6.141s-2.717 0-4.675-1.862c-1.597-1.518-2.029-4.705-2.029-4.705l-1.461 3.698s-.957-1.155-1.688-2.724c-.976 2.184-1.53 4.597-1.53 7.144v13.389h42.491v-13.388c0-2.372-.477-4.632-1.33-6.696-.685 1.32-1.499 2.276-1.499 2.276z" fill="#fff"/><path d="m63.687 74.135c.025-.185.083-.358.168-.514-.085.156-.143.329-.168.514l-.053.397z" fill="#fa759e"/><path d="m67.614 67.14c-.084-.009-.172-.006-.257-.014v2.965c0 1.01-.296 1.945-.783 2.752h4.048c-1.2-1.294-2.47-2.87-3.008-5.703z" fill="#fa759e"/><path d="m73.968 81.82s.413-3.519-1.248-6.42l.692 5.153c0 2.339-1.518 4.323-3.622 5.023-.637.212-1.097.767-1.097 1.438v3.046c.496-.924 1.381-1.627 2.493-1.823l2.399-.424c.416-.073.823-.062 1.221-.012v-6.405c-.482.273-.838.424-.838.424z" fill="#fa759e"/><path d="m70.481 96.919c-.674.13-1.487.206-2.362.206-2.335 0-4.229-.541-4.229-1.209 0-.369.579-.699 1.492-.921 1.251-.303 2.161-1.379 2.161-2.666v-5.315c0-.672-.459-1.226-1.097-1.438-2.104-.7-3.622-2.683-3.622-5.023l.72-5.359c-.492.149-1.004.253-1.545.253-2.958 0-5.357-2.398-5.357-5.357v-2.968c-.083.008-.165.016-.248.023-.583 6.072-3.715 6.559-5.012 9.744-.141.346-.225.713-.272 1.089.204 1.865 1.027 3.54 1.027 3.54s-.232-.003-.599-.048c.288.922.599 1.56.599 1.56s-1.419-.004-2.945-.706v15.646h25.614v-.19c-.134.035-.259.088-.398.112-1.445.256-2.846-.146-3.927-.973z" fill="#fa759e"/><path d="m63.687 74.135c.099-.74.731-1.293 1.478-1.293h1.409c.486-.807.783-1.741.783-2.752v-3.786c-1.645.703-3.455 1.092-5.357 1.092s-3.712-.39-5.357-1.092v3.786c0 2.958 2.398 5.357 5.357 5.357.541 0 1.053-.104 1.545-.253z" fill="#fff"/><path d="m80.315 68.547 2.93-1.512s-3.433-1.515-4.219-5.555c-.785-4.041 2.395-11.48 0-17.998-2.795-7.608-7.649-10.595-9.587-11.521.699 1.386-.151 4.252-1.614 5.609-.211.196-.544.374-.961.531.489.914 1.618 2.823 3.173 4.211.754.673 1.684 1.245 2.569 1.703 1.878.972 3.044 2.922 3.044 5.036v4.696c0 5.638-3.418 10.476-8.294 12.559.228 6.41 3.556 7.835 5.109 10.184 1.962 2.969 1.502 6.843 1.502 6.843s1.969-.83 2.958-2.164c.988-1.334 1.377-2.818 1.377-2.818l2.113 1.811s2.573-3.024 2.428-5.737c-.2-3.774-2.528-5.878-2.528-5.878z" fill="#ffd7e5"/><path d="m56.468 66.226c-4.782-2.123-8.119-6.91-8.119-12.48v-4.931c0-2.067 1.123-3.961 2.925-4.972.965-.541 2.024-1.206 2.94-1.947 1.651-1.334 2.531-2.853 2.926-3.69-.416-.174-.749-.385-.967-.637-1.521-1.763-2.349-4.074-1.503-5.472-2.092 1.067-6.64 4.119-9.309 11.384-2.395 6.519.785 11.543 0 15.583s-3.513 6.607-3.513 6.607l2.225.461s-3.055 4.571-2.566 8.747c.316 2.699 2.466 5.283 2.466 5.283l1.461-3.698s.432 3.186 2.029 4.705c1.958 1.862 4.675 1.862 4.675 1.862s-1.781-3.619-.755-6.141c1.36-3.342 4.747-3.698 5.085-10.664z" fill="#ffd7e5"/><path d="m76.454 50.669c-.285 0-.556.084-.803.234v2.843c0 .779-.069 1.541-.194 2.284.296.237.633.383.997.383 1.124 0 2.034-1.286 2.034-2.872s-.911-2.872-2.034-2.872z" fill="#fff"/><path d="m48.349 53.746v-2.843c-.247-.15-.518-.234-.803-.234-1.124 0-2.034 1.286-2.034 2.872s.911 2.872 2.034 2.872c.364 0 .701-.146.997-.383-.125-.743-.194-1.505-.194-2.284z" fill="#fff"/><path d="m72.607 44.014c-.885-.458-1.815-1.03-2.569-1.703-1.555-1.389-2.684-3.298-3.173-4.211-2.328.876-7.371 1.093-9.724.107-.395.836-1.275 2.355-2.926 3.69-.916.74-1.976 1.405-2.94 1.947-1.803 1.012-2.925 2.905-2.925 4.972v4.931c0 7.539 6.112 13.651 13.651 13.651 7.539 0 13.651-6.112 13.651-13.651v-4.697c-.001-2.114-1.167-4.064-3.045-5.036z" fill="#fff"/><ellipse cx="69.785" cy="55.35" fill="#ffd7e5" rx="1.212" ry=".764"/><path d="m54.215 54.416c-.67 0-1.212.342-1.212.764s.543.764 1.212.764 1.212-.342 1.212-.764-.543-.764-1.212-.764z" fill="#ffd7e5"/><path d="m62 62.501c-2.29 0-3.47-1.6-3.519-1.667-.33-.458-.227-1.096.231-1.425.454-.328 1.086-.228 1.418.221.038.05.662.83 1.869.83 1.194 0 1.857-.814 1.885-.849.35-.436.988-.517 1.429-.175.441.343.529.971.192 1.417-.051.067-1.273 1.648-3.505 1.648z" fill="#fa759e"/><path d="m67.826 37.569c-1.599 1.484-9.981 1.937-11.652 0s-2.513-4.541-1.208-5.862c1.977-2 12.074-2.453 14.241-.098 1.091 1.184.218 4.476-1.381 5.96z" fill="#ffd7e5"/><circle cx="57.994" cy="80.613" fill="#fff" r="1.057"/><path d="m55.726 77.946c-.584 0-1.057.473-1.057 1.057 0 .583.473 1.057 1.057 1.057s1.057-.473 1.057-1.057-.473-1.057-1.057-1.057z" fill="#fff"/><path d="m54.062 75.833c-.584 0-1.057.473-1.057 1.057s.473 1.057 1.057 1.057 1.057-.473 1.057-1.057-.473-1.057-1.057-1.057z" fill="#fff"/><path d="m60.637 80.613c-.584 0-1.057.473-1.057 1.057 0 .583.473 1.057 1.057 1.057s1.057-.473 1.057-1.057-.473-1.057-1.057-1.057z" fill="#fff"/><path d="m68.694 92.329v-5.315c0-.672.459-1.226 1.097-1.438 2.104-.7 3.622-2.683 3.622-5.023l-.862-6.417c-.099-.74-.731-1.293-1.478-1.293h-5.907c-.747 0-1.379.553-1.478 1.293l-.862 6.417c0 2.339 1.518 4.323 3.622 5.023.637.212 1.097.767 1.097 1.438v5.315c0 1.287-.91 2.363-2.161 2.666-.913.221-1.492.551-1.492.921 0 .668 1.893 1.209 4.229 1.209s4.229-.541 4.229-1.209c0-.369-.579-.699-1.492-.921-1.254-.303-2.164-1.378-2.164-2.666z" fill="#d4fbff"/><path d="m70.93 79.837s-1.83 1.228-3.058 0c-.986-.986-2.135-.389-2.549-.118l-.014.118-.146 1.084c.022 1.494 1.146 2.734 2.633 2.895.12.012.528.012.645 0 1.487-.161 2.614-1.401 2.636-2.895z" fill="#fa759e"/><path d="m68.575 93.811-.26-1.469c-.341-1.927.945-3.765 2.872-4.105l2.399-.424c2.225-.393 4.347 1.092 4.74 3.316l.164.93c.484 2.738-1.343 5.35-4.082 5.834-2.737.484-5.349-1.344-5.833-4.082z" fill="#fff"/><g fill="#3a2c60"><path d="m115.793 71.901c-.049-.061-.099-.115-.16-.161-2.224-2.32-5.036-4.069-8.204-4.99-.02-.007-.033-.025-.054-.031-.191-.055-.387-.099-.581-.148-.009-.003-.016-.01-.026-.013-.04-.01-.082-.015-.123-.025-.214-.052-.428-.1-.644-.144-.032-.007-.064-.012-.097-.019 3.347-1.951 5.846-5.184 6.83-9.027.093.011.182.037.277.037 1.701 0 3.034-1.701 3.034-3.872 0-1.026-.305-1.939-.799-2.626v-9.09c0-3.53-2.121-6.564-5.152-7.92-1.145-4.003-5.88-7.013-11.537-7.013s-10.392 3.01-11.537 7.013c-3.031 1.355-5.153 4.39-5.153 7.92v9.091c-.493.686-.798 1.598-.798 2.624 0 2.171 1.333 3.872 3.034 3.872.095 0 .184-.026.276-.037.985 3.842 3.484 7.076 6.831 9.026-.25.05-.497.104-.743.163-.04.01-.081.015-.121.025-.009.002-.016.01-.025.013-.194.049-.391.093-.581.148-.036.01-.061.041-.095.055-2.532.744-4.845 2.004-6.804 3.676-.309-.644-.646-1.179-.948-1.593l1.81-.934c.342-.177.553-.534.541-.919-.013-.385-.244-.729-.597-.884-.029-.013-2.963-1.343-3.641-4.831-.274-1.411.008-3.396.334-5.693.521-3.674 1.17-8.248-.377-12.459-2.799-7.619-7.614-10.823-9.821-11.942-.063-.091-.126-.182-.201-.263-1.454-1.58-4.947-1.875-6.899-1.909-3.352-.057-7.354.53-8.788 1.981-.105.106-.199.218-.285.334-2.533 1.351-6.907 4.608-9.548 11.799-1.544 4.204-.899 7.882-.381 10.837.328 1.873.611 3.49.338 4.899-.71 3.654-3.193 6.047-3.217 6.069-.271.256-.378.642-.276 1 .101.359.394.632.759.708l.86.178c-.465.868-1.055 2.121-1.483 3.551-.94-.786-1.963-1.473-3.047-2.062-.048-.035-.099-.061-.154-.087-1.288-.685-2.665-1.221-4.111-1.589-.022-.007-.037-.026-.059-.031-.194-.048-.396-.072-.592-.114-.096-.021-.191-.045-.287-.064 3.355-1.95 5.86-5.188 6.846-9.036.092.011.183.038.276.038 1.701 0 3.034-1.701 3.034-3.872 0-1.894-1.014-3.428-2.402-3.79v-8.449c0-6.29-5.099-11.388-11.388-11.388h-.312c.157-.397.36-.85.604-1.247.481-.781 1.535-1.79 1.535-1.79s-2.239-.226-4.202.403c-1.962.629-3.271 1.711-3.271 1.711s.152-.927.509-1.792c.434-1.05 1.302-2.208 1.302-2.208s-3.006.165-6.114 1.736c-3.359 1.698-8.836 6.114-8.836 13.976v.601 1.308 7.14c-1.388.362-2.402 1.896-2.402 3.79 0 2.171 1.333 3.872 3.034 3.872.093 0 .184-.026.276-.038.985 3.843 3.484 7.076 6.831 9.027-.153.031-.3.074-.451.109-.136.031-.277.046-.411.079-.034.009-.059.036-.092.048-1.433.368-2.803.892-4.082 1.573-.055.026-.106.054-.155.089-1.688.92-3.215 2.094-4.535 3.472-.06.047-.111.101-.16.162-3.102 3.316-5.012 7.76-5.012 12.649v11.387c0 1.654 1.346 3 3 3h40.491c.035 0 .065-.016.099-.02h36.46c.057 0 .107-.023.162-.033h11.037 8.229 15.131c1.654 0 3-1.346 3-3v-11.388c.003-4.888-1.906-9.333-5.009-12.648zm-75.795-16.527c.058-.529.093-1.064.093-1.608v-2.036c.427.177.837.902.837 1.831 0 .998-.473 1.76-.933 1.861.002-.016.002-.032.003-.048zm-30.046-1.813c0-.928.409-1.653.837-1.83v2.036c0 .544.035 1.08.093 1.608.002.016.001.031.003.047-.46-.101-.933-.863-.933-1.861zm71.299 13.377-1.396.72c-.29.15-.486.433-.53.756-.044.324.075.65.315.871.02.019 2.029 1.908 2.204 5.192.077 1.433-.854 3.152-1.588 4.231l-1.305-1.118c-.26-.224-.619-.297-.947-.195s-.582.367-.67.699c-.004.013-.359 1.326-1.213 2.478-.285.386-.702.739-1.123 1.034-.06-1.214-.305-2.864-1.034-4.453l-.424-3.152c-.166-1.231-1.228-2.16-2.47-2.16h-1.17c-.744-1.171-1.339-2.682-1.507-4.911.168-.082.329-.174.493-.261.049-.026.098-.051.146-.078 1.491-.816 2.804-1.87 3.903-3.104.448 1.091 1.276 2.388 2.803 3.243.154.086.322.127.487.127.351 0 .69-.184.873-.511.271-.482.099-1.091-.384-1.361-1.761-.986-2.19-2.925-2.28-3.49.395-.634.737-1.3 1.031-1.989.026-.06.049-.12.074-.181.145-.353.277-.711.394-1.076.026-.079.053-.156.077-.235.063-.207.118-.417.172-.628.09.01.179.025.269.025.639 0 1.225-.24 1.709-.654-.247 1.87-.388 3.519-.117 4.912.515 2.64 2.019 4.318 3.208 5.269zm-23.608.8c.42.131.847.236 1.277.327.125.027.252.048.379.072.309.057.618.105.93.142.152.018.304.037.458.051.381.034.764.054 1.147.058.056 0 .11.008.166.008.054 0 .105-.008.159-.008.387-.004.773-.025 1.158-.059.15-.014.299-.032.448-.05.317-.038.631-.086.944-.145.122-.023.246-.043.367-.069.432-.092.861-.197 1.282-.328v2.352c0 .629-.153 1.215-.398 1.752h-.794c-1.242 0-2.304.928-2.47 2.16l-.051.38c-.212.032-.424.066-.645.066-2.402 0-4.356-1.955-4.356-4.357v-2.352zm-.265-2.227c-.099-.039-.201-.068-.299-.11-.371-.157-.733-.333-1.085-.523-.034-.018-.065-.039-.099-.058-.298-.165-.589-.342-.872-.53-.069-.046-.137-.094-.205-.141-.264-.183-.521-.374-.77-.576-.044-.035-.089-.069-.132-.105-.581-.484-1.116-1.019-1.602-1.598-.055-.066-.109-.133-.162-.199-.186-.231-.364-.47-.534-.714-.049-.071-.101-.141-.149-.213-.199-.298-.386-.605-.56-.92-.046-.084-.086-.172-.131-.257-.122-.235-.238-.474-.346-.717-.057-.129-.111-.258-.164-.389-.093-.23-.177-.463-.256-.699-.039-.115-.081-.228-.117-.344-.102-.334-.189-.674-.263-1.019-.025-.115-.043-.233-.065-.349-.039-.214-.07-.43-.099-.647-.019-.141-.039-.281-.053-.422-.003-.031-.007-.061-.01-.092-.034-.378-.058-.759-.058-1.145v-2.843-2.088c0-1.694.925-3.265 2.414-4.1 1.203-.675 2.239-1.362 3.08-2.041.309-.25.585-.506.846-.763.062-.061.121-.12.18-.181.498-.512.907-1.021 1.237-1.495.038-.054.074-.106.11-.16.154-.229.296-.451.414-.654.003.001.007.001.01.002.761.205 1.668.343 2.735.402.128.007.265.006.396.011.071.003.141.004.212.006.187.005.368.015.558.015.144 0 .292-.007.438-.01.037-.001.074-.002.111-.003.351-.008.703-.025 1.055-.049.035-.002.069-.004.104-.007.351-.026.697-.06 1.039-.103.029-.004.058-.006.086-.01.314-.04.619-.088.917-.143.056-.01.114-.019.17-.029.135-.026.264-.055.394-.084.025-.006.049-.01.073-.018.057-.013.111-.027.167-.04.096-.023.203-.042.295-.066.01.018.025.04.036.058.146.245.307.504.489.781.026.04.055.08.082.12.17.255.356.516.555.782.037.05.071.097.109.147.219.286.455.571.705.853.055.062.11.121.166.182.266.29.543.574.84.84.723.646 1.656 1.267 2.774 1.845 1.545.799 2.504 2.389 2.504 4.148v1.853 2.843c0 .39-.024.775-.059 1.156-.001.013-.003.027-.004.04-.015.154-.038.307-.058.461-.031.232-.063.464-.106.692-.018.097-.034.194-.054.29-.079.372-.172.74-.283 1.099-.009.03-.021.06-.031.09-.108.339-.231.671-.366.997-.027.065-.055.13-.083.195-.147.339-.305.672-.48.994-.003.005-.005.01-.007.014-.971 1.783-2.359 3.308-4.031 4.443-.016.011-.032.022-.049.032-.312.21-.635.406-.966.588-.025.014-.049.028-.074.042-.71.384-1.459.703-2.242.947-2.437.754-5.08.754-7.518-.001-.291-.088-.575-.201-.859-.313zm7.3 8.758c.032-.243.242-.426.487-.426h5.906c.245 0 .455.183.487.426l.854 6.348c-.027 1.827-1.2 3.433-2.938 4.011-.572.19-1.043.554-1.356 1.017-.313-.462-.785-.827-1.356-1.017-1.737-.578-2.91-2.184-2.938-4.011zm5.016 12.745c0-.26.223-.426.412-.489 1.348-.448 2.455-1.325 3.213-2.442.018.015.031.035.05.049.13.098.283.148.438.174v2.492c-.132.013-.263.007-.395.031l-2.399.424c-.471.083-.908.255-1.319.472zm6.862-31.612c.002-.019.001-.038.003-.057.01-.088.016-.177.024-.265.04-.441.068-.885.068-1.333v-2.037c.427.177.837.902.837 1.831 0 .997-.473 1.759-.932 1.861zm-7.578-17.608c.014-.017.028-.034.041-.051.591.735 1.497 1.622 2.858 2.384.154.086.322.127.487.127.351 0 .69-.184.873-.511.271-.482.099-1.091-.384-1.361-1.612-.903-2.407-1.981-2.731-2.523.032-.077.064-.153.094-.231.006-.017.011-.034.018-.051.214-.578.367-1.178.429-1.763 2.196 1.471 5.376 4.434 7.425 10.012.87 2.37.952 4.892.766 7.346-.513-.852-1.295-1.406-2.203-1.479v-.643c0-.419-.052-.828-.126-1.23.001.002.003.004.004.006.185.323.522.504.869.504.168 0 .339-.042.495-.132.479-.274.646-.885.372-1.364-1.245-2.179-3.891-3.111-4.552-3.315-.208-.14-.42-.276-.646-.393h-.001c-.969-.501-1.764-1.026-2.361-1.561-.236-.211-.459-.44-.674-.673-.058-.063-.115-.126-.171-.19-.173-.196-.34-.396-.497-.596-.031-.04-.065-.08-.096-.12-.182-.238-.352-.473-.508-.702-.04-.059-.077-.115-.116-.173-.119-.178-.23-.35-.331-.512-.019-.031-.039-.062-.057-.092.092-.066.176-.135.253-.205.019-.018.036-.039.055-.057.111-.107.22-.219.325-.339.03-.036.059-.075.09-.112zm-13.614-4.688c.012-.076.031-.147.053-.217.023-.073.049-.143.082-.208.051-.098.103-.196.178-.272.681-.688 3.47-1.392 6.888-1.392.146 0 .294.001.442.004 3.228.057 4.961.716 5.465 1.264.041.045.064.121.094.187.037.086.066.182.086.289.008.046.014.094.019.144.01.094.015.195.014.301-.002.106-.008.215-.019.331-.006.066-.013.131-.022.199-.022.152-.054.311-.092.473-.013.054-.024.107-.039.162-.042.157-.095.316-.151.475-.026.073-.049.145-.078.217-.052.132-.114.261-.176.39-.045.094-.087.189-.136.28-.061.112-.133.217-.201.323-.06.092-.115.189-.18.275-.116.155-.244.296-.378.428-.024.024-.044.054-.069.077-.01.01-.035.02-.047.03.188-.829.354-1.815.354-2.769 0-.552-.447-1-1-1s-1 .448-1 1c0 1.292-.382 2.736-.612 3.491-.039.007-.078.014-.117.02-.033-.522-.457-.939-.988-.939-.553 0-1 .448-1 1v.157c-.006 0-.011.001-.017.001-.048.003-.099.002-.147.005l-.287-1.04c-.146-.533-.694-.841-1.23-.698-.532.147-.845.698-.697 1.23l.14.505c-.004 0-.007 0-.011 0-.332-.018-.631-.047-.914-.079-.335-.667-.874-1.896-.874-2.647 0-.552-.447-1-1-1s-1 .448-1 1c0 .617.18 1.318.406 1.959-.023-.015-.038-.028-.056-.042-.044-.035-.088-.07-.117-.104-.176-.204-.337-.413-.486-.623-.053-.075-.097-.151-.147-.227-.09-.136-.18-.273-.258-.409-.048-.085-.088-.169-.131-.253-.066-.128-.133-.256-.188-.382-.036-.083-.065-.163-.096-.245-.048-.125-.094-.25-.13-.37-.023-.078-.041-.154-.059-.23-.028-.117-.052-.232-.068-.343-.011-.076-.017-.149-.022-.221-.007-.1-.008-.196-.004-.289.004-.076.011-.148.023-.218zm-9.065 10.72c1.945-5.296 4.946-8.242 7.076-9.765.061.449.188.904.356 1.355.005.012.009.025.014.037.052.137.107.274.167.41-.324.543-1.118 1.618-2.728 2.519-.482.27-.654.879-.384 1.361.183.327.522.511.873.511.165 0 .333-.041.487-.127 1.365-.764 2.273-1.656 2.864-2.392.011.014.021.029.032.043.116.151.236.3.36.444.105.122.228.237.363.345.006.005.011.011.018.017-.013.022-.027.045-.041.067-.086.138-.182.284-.286.434-.027.039-.052.076-.08.116-.132.184-.278.374-.439.567-.033.04-.071.081-.106.121-.135.157-.281.315-.437.473-.055.056-.109.111-.166.167-.204.198-.419.396-.657.588-.753.609-1.695 1.232-2.801 1.853-2.119 1.188-3.436 3.428-3.436 5.844v.878c-.688.055-1.302.386-1.785.915-.212-2.074-.166-4.325.736-6.781zm1.117 11.241c.008.093.014.186.025.278.002.019.001.038.003.057-.459-.1-.933-.863-.933-1.861 0-.929.41-1.654.838-1.831v2.037c0 .443.027.883.067 1.32zm-2.511 11.619c.184-.276.219-.627.093-.934-.126-.308-.396-.533-.722-.6l-.561-.116c.924-1.226 2.13-3.225 2.627-5.781.133-.683.164-1.381.135-2.094.332.156.689.252 1.068.252.092 0 .182-.014.273-.025.047.185.095.369.149.551.042.141.09.279.136.418.093.279.194.555.303.828.011.029.02.059.032.087-.203.395-.727 1.342-1.54 2.306-.356.422-.304 1.053.118 1.409.188.158.417.236.645.236.285 0 .567-.121.765-.355.436-.516.795-1.022 1.086-1.47.079.13.166.254.25.381.058.088.115.176.175.262.205.299.421.591.648.874.05.977.045 4.673-2.535 8.334-.318.452-.21 1.076.241 1.394.175.124.376.183.575.183.314 0 .624-.147.818-.424 1.971-2.797 2.633-5.582 2.834-7.5.038.033.076.066.114.098.026.022.051.045.078.067.345.283.703.552 1.076.805.038.026.078.049.117.075.313.208.636.403.966.588.099.055.197.11.297.163.088.046.172.098.26.142-.311 3.724-1.612 5.188-2.874 6.607-.769.864-1.563 1.758-2.095 3.067-.707 1.737-.317 3.827.128 5.262-.761-.214-1.674-.608-2.435-1.331-1.095-1.041-1.618-3.324-1.727-4.115-.063-.451-.421-.803-.872-.857-.04-.005-.08-.007-.12-.007-.405 0-.777.247-.929.632l-.771 1.953c-.527-.893-1.092-2.088-1.232-3.287-.438-3.753 2.377-8.035 2.406-8.078zm-11.049 2.06c.838.251 1.64.58 2.416.955-.89 4.197-4.157 7.471-8.232 8.469l-.129-1.571.393-1.02c.167.119.366.191.576.191h.021c.337-.007.646-.183.826-.467zm-9.186 6.707-.69-1.794 1.46-2.118 1.46 2.118-.69 1.794zm1.387 3.012c-.205.012-.409.029-.617.029 0 0 0 0-.001 0-.207 0-.411-.017-.616-.029l.082-1.012h1.068zm-4.019-5.512-2.939-4.667c.117-.019.235-.037.353-.054.382-.053.766-.094 1.154-.12.109-.008.219-.011.328-.017l3.094 1.971zm3.101-4.55c.101.002.199.015.3.015s.2-.013.3-.015l-.3.191zm1.713 1.663 3.096-1.972c.1.005.2.008.3.015.392.026.781.069 1.167.121.123.017.245.035.367.055l-2.939 4.668zm-14.063-16.3v-3.317c0-1.741.486-3.442 1.407-4.922l3.446-5.546c1.189-1.628 3.104-2.6 5.12-2.6h5.355c2.016 0 3.931.972 5.078 2.538l3.489 5.608c.92 1.478 1.406 3.179 1.406 4.921v3.317c0 6.976-5.676 12.651-12.651 12.651s-12.65-5.674-12.65-12.65zm4.237 14.982 4.127 6.555c.18.285.489.46.826.467h.021c.21 0 .409-.072.576-.191l.393 1.02-.129 1.571c-4.077-.998-7.344-4.276-8.234-8.475.778-.374 1.582-.697 2.42-.947zm-3.581 28.242h-7.25c-.552 0-1-.449-1-1v-11.388c0-4.121 1.524-7.885 4.024-10.785 2.581 1.383 4.226 4.057 4.226 7.025zm21.991 0h-19.991v-16.148c0-3.513-1.829-6.716-4.762-8.514.659-.594 1.36-1.139 2.108-1.623 1.329 5.07 5.623 8.887 10.786 9.64.011.002.02.009.031.011.072.01.136.014.206.022.21.027.42.053.632.069.342.029.674.046.994.046s.652-.018.994-.046c.212-.016.421-.042.63-.069.071-.009.136-.012.209-.023.011-.002.02-.009.031-.011 5.163-.754 9.458-4.571 10.785-9.64.759.492 1.467 1.053 2.135 1.659-2.934 1.796-4.788 4.964-4.788 8.478zm4.318-12.408v12.408h-2.318v-16.148c0-2.492 1.16-4.778 3.056-6.269.01.141.004.282.021.423.101.861.365 1.7.687 2.464-.922 2.194-1.446 4.596-1.446 7.122zm8.439 12.388h-6.438v-12.388c0-1.662.263-3.26.725-4.772.389.583.691.951.724.992.226.272.581.409.927.348.349-.056.642-.292.771-.62l.373-.944c.352.832.837 1.679 1.498 2.308.451.429.935.768 1.42 1.042zm14.697-1.054c0 .431.184.774.475 1.054h-13.172v-13.23c1.071.282 1.881.29 1.945.29.346 0 .666-.178.849-.472s.201-.66.049-.97c-.44-.895-1.43-3.595-.726-5.322.402-.991 1.021-1.687 1.737-2.492.66-.742 1.358-1.53 1.953-2.602.865 2.484 3.224 4.275 5.999 4.275.125 0 .247-.014.371-.022l-.537 3.994c-.006.044-.009.089-.009.133 0 2.715 1.73 5.115 4.307 5.972.19.063.412.229.412.489v5.315c0 .798-.574 1.495-1.397 1.694-1.497.365-2.256 1.002-2.256 1.894zm5.229.209c-.947 0-1.725-.094-2.296-.213.791-.237 1.455-.71 1.932-1.321.156.546.373 1.06.663 1.525-.102.002-.194.009-.299.009zm6.116.783c-2.189.389-4.288-1.08-4.676-3.271l-.26-1.469c-.118-.668.031-1.343.421-1.9s.972-.928 1.641-1.046l2.399-.424c.818-.144 1.633.038 2.31.511s1.128 1.182 1.272 1.994l.164.93c.387 2.191-1.081 4.288-3.271 4.675zm8.011.062h-4.237c1.201-1.335 1.803-3.185 1.467-5.086l-.164-.93c-.236-1.339-.98-2.505-2.095-3.285-.436-.305-.915-.513-1.409-.668v-3.535c.655-.42 1.395-.991 1.923-1.703.435-.587.766-1.198 1.006-1.725l1.03.882c.202.173.468.259.729.238.265-.021.511-.146.683-.349.028-.033.208-.248.461-.594.387 1.392.607 2.852.607 4.366v12.389zm31.071-24.694c-1.109.68-2.041 1.574-2.795 2.597-.008-.041-.004-.083-.018-.124l-1.809-5.443c1.711.725 3.262 1.743 4.622 2.97zm-6.637-2.692 1.654 4.977-3.383 1.708c-.105.053-.197.123-.274.205l.591-3.831zm-1.012 10.707-1.994 3.436v-.752l.829-5.374zm7.891-28.341c.278.329.489.891.489 1.558 0 1.001-.476 1.756-.937 1.853.061-.542.099-1.09.099-1.647v-2.026c.121.053.223.144.304.231.013.013.032.018.045.031zm-30.487 1.558c0-.662.209-1.22.484-1.55.015-.015.035-.024.049-.04.08-.087.183-.179.304-.232v2.027c0 .557.038 1.106.099 1.647-.461-.097-.936-.852-.936-1.852zm.837-7.7v3.836c-.013.001-.026.002-.039.003v-7.855c0-2.332 1.205-4.381 3.02-5.576.17.309.487.526.865.526.553 0 1-.448 1-1 0-3.795 4.398-6.883 9.806-6.883s9.806 3.088 9.806 6.883c0 .552.447 1 1 1 .378 0 .694-.218.864-.526 1.815 1.196 3.019 3.245 3.019 5.576v7.855c-.013-.001-.026-.002-.039-.003v-3.836c0-3.161-1.836-5.89-4.49-7.211-.002-.001-.002-.003-.004-.004-.005-.004-.012-.004-.017-.008-.019-.009-.035-.022-.054-.031-.001.002-.002.003-.003.005-.442-.266-1.016-.164-1.321.261-1.69 2.348-5.048 3.807-8.761 3.807s-7.07-1.458-8.761-3.806c-.306-.425-.88-.526-1.322-.26-.001-.002-.003-.004-.004-.006-.021.01-.04.024-.061.035-.003.002-.007.002-.01.004-.001.001-.001.002-.002.002-2.655 1.32-4.492 4.05-4.492 7.212zm2 7.906v-2.834-5.071c0-2.161 1.142-4.055 2.849-5.128 2.173 2.446 5.825 3.946 9.802 3.946s7.629-1.5 9.801-3.946c1.707 1.074 2.849 2.967 2.849 5.128v5.07 2.835c0 6.976-5.675 12.651-12.65 12.651s-12.651-5.675-12.651-12.651zm4.53 15.868 1.413 3.061.59 3.83c-.077-.081-.17-.152-.275-.205l-3.383-1.708zm-3.875 27.356h-2.318v-12.356c0-2.339-.454-4.569-1.252-6.63.511-1.077.916-2.34.85-3.581.007.137-.011.273-.015.41 1.706 1.49 2.735 3.659 2.735 6.007zm.033-22.062c-.756-1.019-1.708-1.89-2.817-2.569 1.361-1.234 2.924-2.245 4.635-2.977l-1.801 5.418c-.013.043-.009.086-.017.128zm6.848 22.062h-4.881v-16.149c0-1.687-.44-3.291-1.206-4.709l3.067 1.549-1.01 2.33c-.126.291-.106.625.053.899l3.978 6.853v9.227zm0-13.212-1.994-3.436 1.166-2.691.828 5.374zm-1.414-15.467c.356-.062.714-.12 1.077-.159.145-.015.291-.023.437-.035.167-.013.337-.016.506-.025l2.958 1.883-2.814 3.021zm4.179 28.679h-.765v-9.496-4.544c0-.051-.004-.102-.012-.152l-1.099-7.128c.114-.053.221-.124.309-.218l1.47-1.578.991 2.791zm2.35-28.397-.3-.191c.101.002.199.015.3.015s.199-.013.3-.015zm3.126 14.204c-.008.05-.012.101-.012.152v4.544 9.496h-.764l-.894-20.326.991-2.79 1.469 1.578c.088.095.195.165.309.218zm-1.575-12.821 2.956-1.882c.197.01.396.013.592.03.134.011.268.017.401.032.347.038.688.098 1.028.157l-2.163 4.684zm18.694 26.014c0 .551-.448 1-1 1h-7.25v-6.059c0-.552-.447-1-1-1s-1 .448-1 1v6.059h-4.881v-9.226l3.978-6.853c.159-.274.179-.608.053-.899l-1.01-2.33 3.063-1.547c-.761 1.421-1.203 3.023-1.203 4.708 0 .552.447 1 1 1s1-.448 1-1c0-2.968 1.645-5.642 4.226-7.025 2.501 2.9 4.024 6.664 4.024 10.785z"/><path d="m109.555 83.555c-.553 0-1 .448-1 1v2.671c0 .552.447 1 1 1s1-.448 1-1v-2.671c0-.552-.447-1-1-1z"/><circle cx="92.537" cy="51.803" r="1.365"/><circle cx="104.582" cy="51.803" r="1.365"/><path d="m98.56 58.879c1.407 0 2.552-1.145 2.552-2.552v-.91c0-.552-.447-1-1-1s-1 .448-1 1v.91c0 .305-.247.552-.552.552s-.553-.248-.553-.552v-.91c0-.552-.447-1-1-1s-1 .448-1 1v.91c0 1.407 1.146 2.552 2.553 2.552z"/><path d="m103.475 49.549 2.674.466c.059.01.116.015.173.015.478 0 .899-.342.984-.829.095-.544-.27-1.062-.813-1.157l-2.674-.466c-.553-.091-1.063.271-1.157.814-.095.545.269 1.062.813 1.157z"/><path d="m93.3 47.579-2.673.466c-.544.095-.908.613-.813 1.157.085.486.507.828.984.828.057 0 .114-.005.173-.015l2.673-.466c.544-.095.908-.613.813-1.157-.094-.543-.604-.905-1.157-.813z"/><path d="m102.381 60.654c.331-.437.245-1.055-.188-1.39-.434-.335-1.06-.256-1.4.174-.032.041-.815 1.009-2.233 1.009-1.438 0-2.179-.937-2.221-.991-.323-.44-.943-.538-1.39-.217-.448.323-.549.949-.226 1.396.053.074 1.337 1.812 3.836 1.812 2.436 0 3.767-1.72 3.822-1.793z"/><path d="m19.418 50.491c-.754 0-1.365.611-1.365 1.365s.611 1.365 1.365 1.365 1.365-.611 1.365-1.365-.611-1.365-1.365-1.365z"/><path d="m31.463 50.491c-.754 0-1.365.611-1.365 1.365s.611 1.365 1.365 1.365 1.365-.611 1.365-1.365-.611-1.365-1.365-1.365z"/><path d="m25.44 58.932c1.407 0 2.553-1.145 2.553-2.552v-.91c0-.552-.447-1-1-1s-1 .448-1 1v.91c0 .305-.248.552-.553.552s-.553-.248-.553-.552v-.91c0-.552-.447-1-1-1s-1 .448-1 1v.91c0 1.407 1.146 2.552 2.553 2.552z"/><path d="m30.356 49.602 2.673.466c.059.01.116.015.173.015.478 0 .899-.342.984-.828.095-.544-.27-1.062-.813-1.157l-2.673-.466c-.552-.093-1.063.27-1.157.813-.095.544.269 1.062.813 1.157z"/><path d="m20.181 47.632-2.674.466c-.544.095-.908.613-.813 1.157.085.486.507.829.984.829.057 0 .114-.005.173-.015l2.674-.466c.544-.095.908-.613.813-1.157s-.603-.908-1.157-.814z"/><path d="m29.262 60.706c.331-.437.245-1.054-.188-1.39-.432-.335-1.06-.256-1.4.174-.032.041-.816 1.01-2.234 1.01-1.436 0-2.175-.933-2.22-.991-.324-.441-.943-.54-1.39-.218-.448.323-.549.948-.227 1.396.054.074 1.336 1.813 3.836 1.813 2.436 0 3.768-1.721 3.823-1.794z"/><circle cx="55.977" cy="51.836" r="1.365"/><circle cx="68.022" cy="51.836" r="1.365"/><path d="m62 58.912c1.407 0 2.553-1.145 2.553-2.552v-.91c0-.552-.447-1-1-1s-1 .448-1 1v.91c0 .305-.248.552-.553.552s-.552-.248-.552-.552v-.91c0-.552-.447-1-1-1s-1 .448-1 1v.91c0 1.407 1.144 2.552 2.552 2.552z"/><path d="m66.916 49.582 2.673.466c.059.01.116.015.173.015.478 0 .899-.342.984-.828.095-.544-.27-1.062-.813-1.157l-2.673-.466c-.552-.091-1.063.271-1.157.813-.096.544.269 1.062.813 1.157z"/><path d="m56.741 47.612-2.673.466c-.544.095-.908.613-.813 1.157.085.486.507.828.984.828.057 0 .114-.005.173-.015l2.673-.466c.544-.095.908-.613.813-1.157-.095-.543-.605-.905-1.157-.813z"/></g><circle cx="77.397" cy="55.945" fill="#0089ef" r="1.06"/><circle cx="46.603" cy="55.945" fill="#0089ef" r="1.06"/></svg>