<svg id="Icons" height="512" viewBox="0 0 60 60" width="512" xmlns="http://www.w3.org/2000/svg"><path d="m46.34 24-1.17 1v-1z" fill="#2fa8cc"/><path d="m49.69 21.12-1.32 1.14-.03.02-1.24 1.06-.76.66h-1.17v1l-1.17 1-6.45 5.53-.55.47v.83l-.83-.2-.79-.2c.02-.14.04-.28.06-.43h-9.44v2h-2v-1.23a2.94 2.94 0 0 0 -1 2.23v.96h1l-.04 1.04c-2.39-.1-5.55.46-7.8.17a63.165 63.165 0 0 0 7.68.79l-.84 5.04c0 1.66 1.85 2 3.51 2l-.34 3c.35 0 .66 0 .73-.01l.1 2c-.07 0-1.55.01-1.62 0-.12.01-.25.01-.38.01a25 25 0 1 1 24.69-28.88z" fill="#2fa8cc"/><path d="m24 37-.05.33-.11.63a63.165 63.165 0 0 1 -7.68-.79c2.25.29 5.41-.27 7.8-.17z" fill="#2fa8cc"/><path d="m48.37 23 .9-1.16.52-.09c-.03-.21-.06-.42-.1-.63l-1.32 1.14-.03.02-1.24 1.06a7.023 7.023 0 0 1 .35.66l.89-1zm-3.2 1v1l-1.17 1h5v-2zm-8.17 8.83.19.05.24-.21c.03-.2.1-.93.12-1.14l-.55.47zm-20.84 4.34a63.165 63.165 0 0 0 7.68.79h.08l.03-.63.01-.33c-2.39-.1-5.55.46-7.8.17z" fill="#2fa8cc"/><path d="m51 20v38l-14-12v-14l.55-.47 6.45-5.53 1.17-1 1.17-1 .76-.66 1.24-1.06.03-.02 1.32-1.14z" fill="#2fa8cc"/><g fill="#67b9cc"><path d="m18.91 47.18a23.112 23.112 0 0 1 -16.1-16.13c2.35 2.36 6.05 4.28 10.62 5.5 1.21 4.56 3.12 8.27 5.48 10.63z"/><path d="m12.91 34.33c-5.98-1.79-10.13-4.85-10.81-8.33h9.91a46.209 46.209 0 0 0 .9 8.33z"/><path d="m35.99 24h-9.99v-9.98a44.328 44.328 0 0 1 8.89 1.08 43.511 43.511 0 0 1 1.1 8.9z"/><path d="m24 14.01v9.99h-9.99a43.412 43.412 0 0 1 1.1-8.89 43.412 43.412 0 0 1 8.89-1.1z"/><path d="m12.9 15.7a46.909 46.909 0 0 0 -.89 8.3h-9.91c.69-3.45 4.88-6.5 10.8-8.3z"/><path d="m18.91 2.82c-2.36 2.36-4.27 6.06-5.48 10.61-4.55 1.21-8.25 3.12-10.61 5.48a23.134 23.134 0 0 1 16.09-16.09z"/><path d="m24 2.1v9.91a46.909 46.909 0 0 0 -8.3.89c1.8-5.92 4.85-10.11 8.3-10.8z"/><path d="m34.3 12.93a45.458 45.458 0 0 0 -8.3-.91v-9.92c3.46.69 6.51 4.89 8.3 10.83z"/><path d="m47.17 18.94c-2.37-2.37-6.09-4.27-10.59-5.48-1.21-4.56-3.12-8.27-5.48-10.63a23.081 23.081 0 0 1 16.07 16.11z"/><path d="m25 32.18a2.968 2.968 0 0 0 -2 2.82v.96a43.48 43.48 0 0 1 -7.89-1.05 43.523 43.523 0 0 1 -1.1-8.91h9.99v6.18z"/><path d="m36.48 32h-10.48v-6h9.98a44.37 44.37 0 0 1 -.49 5.85z"/></g><path d="m37 45.5v4.5a2.006 2.006 0 0 1 -2 2h-3.42l.92-6.5z" fill="#7f8c8d"/><path d="m44 26-6.45 5.53a47.268 47.268 0 0 0 .43-5.53z" fill="#67b9cc"/><path d="m45.17 25v-1h-7.18a47.024 47.024 0 0 0 -.89-8.31c5.11 1.55 8.97 4.03 10.35 6.99l.89-.4z" fill="#67b9cc"/><rect fill="#f29c1f" height="40" rx="1" width="4" x="51" y="19"/><path d="m23 43c0 1.66 1.85 2 3.51 2l-.46 4h-.05c-.17.01-.84 0-1 0-3.86 0-7.33-5.42-9.3-11.91 2.27.46 5.74-.2 8.3-.09z" fill="#67b9cc"/><path d="m55 35a4 4 0 0 1 0 8z" fill="#bdc3c7"/><path d="m49.79 21.75c-.03-.21-.06-.42-.1-.63a25 25 0 1 0 -24.69 28.88c.13 0 .26 0 .38-.01.07.01 1.55 0 1.62 0l-.05-1-.05-1c-.17.01-1.74.01-1.9.01-3.86 0-7.33-4.42-9.3-10.91a60.2 60.2 0 0 0 8.22.87l.08-2h-1a43.48 43.48 0 0 1 -7.89-1.05 43.523 43.523 0 0 1 -1.1-8.91h9.99v8h2v-8h9.98a53.464 53.464 0 0 1 -.6 6.428l.789.207 1.025.247.234-.216c.03-.2.1-.926.121-1.136a47.268 47.268 0 0 0 .431-5.53h11.02v-2h-11.01a47.024 47.024 0 0 0 -.89-8.31c5.11 1.55 8.97 5.35 10.35 8.31l.89-1h.03l.9-1.16zm-37.78 4.25a46.209 46.209 0 0 0 .9 8.33c-5.98-1.79-10.13-4.85-10.81-8.33zm-9.91-2c.69-3.45 4.88-6.5 10.8-8.3a46.909 46.909 0 0 0 -.89 8.3zm16.81 23.18a23.112 23.112 0 0 1 -16.1-16.13c2.35 2.36 6.05 4.28 10.62 5.5 1.21 4.56 3.12 8.27 5.48 10.63zm-5.48-33.75c-4.55 1.21-8.25 3.12-10.61 5.48a23.134 23.134 0 0 1 16.09-16.09c-2.36 2.36-4.27 6.06-5.48 10.61zm10.57 10.57h-9.99a43.412 43.412 0 0 1 1.1-8.89 43.412 43.412 0 0 1 8.89-1.1zm0-11.99a46.909 46.909 0 0 0 -8.3.89c1.8-5.92 4.85-10.11 8.3-10.8zm2-9.91c3.46.69 6.51 4.89 8.3 10.83a45.458 45.458 0 0 0 -8.3-.91zm0 21.9v-9.98a44.328 44.328 0 0 1 8.89 1.08 43.511 43.511 0 0 1 1.1 8.9zm10.58-10.54c-1.21-4.56-3.12-8.27-5.48-10.63a23.081 23.081 0 0 1 16.07 16.11c-2.37-2.37-6.09-4.27-10.59-5.48z" fill="#2fa8cc"/><path d="m33 46-.92 6-.82 5.3a2 2 0 0 1 -1.98 1.7h-1.78a3 3 0 0 1 -2.97-3.46l.85-5.55.16-1 .46-2.99z" fill="#95a5a5"/><path d="m37.5 32v14h-11.5a3 3 0 0 1 -3-3v-8a2.968 2.968 0 0 1 2-2.82 2.772 2.772 0 0 1 1-.18z" fill="#bdc3c7"/><path d="m51 20v38l-14-12v-14l.55-.47 6.45-5.53 1.17-1 3.17-2.72.03-.02 1.32-1.14z" fill="#f0c419"/></svg>