<?xml version="1.0" encoding="iso-8859-1"?>
<!-- Generator: Adobe Illustrator 18.0.0, SVG Export Plug-In . SVG Version: 6.00 Build 0)  -->
<!DOCTYPE svg PUBLIC "-//W3C//DTD SVG 1.1//EN" "http://www.w3.org/Graphics/SVG/1.1/DTD/svg11.dtd">
<svg version="1.1" id="Capa_1" xmlns="http://www.w3.org/2000/svg" xmlns:xlink="http://www.w3.org/1999/xlink" x="0px" y="0px"
	 viewBox="0 0 188.131 188.131" style="enable-background:new 0 0 188.131 188.131;" xml:space="preserve">
<g>
	<g>
		
			<rect x="104.422" y="45.7" transform="matrix(-0.9557 -0.2943 0.2943 -0.9557 199.7254 137.8756)" style="fill-rule:evenodd;clip-rule:evenodd;fill:#C79369;" width="11.632" height="16.417"/>
		<path style="fill-rule:evenodd;clip-rule:evenodd;fill:#E7B791;" d="M95.263,89.301l2.535-21.787l6.444-13.901
			c3.455,1.72,7.169,2.842,11.117,3.424c2.171,2.114,2.627,9.659,0.176,15.091l-8.84,20.694L95.263,89.301z"/>
		
			<ellipse transform="matrix(-0.0173 -0.9999 0.9999 -0.0173 75.4214 108.1348)" style="fill-rule:evenodd;clip-rule:evenodd;fill:#5E3A1D;" cx="90.851" cy="17.003" rx="15.362" ry="15.517"/>
		
			<ellipse transform="matrix(-0.0173 -0.9999 0.9999 -0.0173 77.317 135.4257)" style="fill-rule:evenodd;clip-rule:evenodd;fill:#F5F0F0;" cx="105.21" cy="29.717" rx="15.363" ry="15.518"/>
		
			<ellipse transform="matrix(-0.0173 -0.9999 0.9999 -0.0173 77.5715 144.7472)" style="fill-rule:evenodd;clip-rule:evenodd;fill:#E7B791;" cx="109.919" cy="34.252" rx="19.555" ry="20.203"/>
		<path style="fill-rule:evenodd;clip-rule:evenodd;fill:#F5F0F0;" d="M105.521,90.937c11.144,22.318-7.195,54.3-41.21,73.18
			c-14.874-7.008-27.624-18.922-35.572-34.841c-7.948-15.918-9.811-33.269-6.475-49.368C57.792,64.062,94.377,68.62,105.521,90.937z
			"/>
		<path style="fill-rule:evenodd;clip-rule:evenodd;fill:#F5F0F0;" d="M97.798,67.514c1.361,0.445,14.113-5.239,19.265-1.258
			c-0.214,2.006-0.708,4.057-1.527,5.871l-8.75,20.484l-0.09,0.21L95.263,89.3L97.798,67.514z"/>
		
			<ellipse transform="matrix(0.3161 -0.9487 0.9487 0.3161 -99.4956 99.3645)" style="fill-rule:evenodd;clip-rule:evenodd;fill:#F5F0F0;" cx="19.175" cy="118.696" rx="4.212" ry="8.388"/>
		<path style="fill-rule:evenodd;clip-rule:evenodd;fill:#5E3A1D;" d="M124.535,20.739c-11.962,17.649-21.826,15.487-25.623,29.926
			c-5.438-3.42-9.075-9.311-9.192-16.063c-0.187-10.798,8.706-19.709,19.862-19.901C115.451,14.599,120.777,16.932,124.535,20.739z"
			/>
		
			<ellipse transform="matrix(-0.2426 -0.9701 0.9701 -0.2426 93.4684 148.8319)" style="fill-rule:evenodd;clip-rule:evenodd;fill:#E7B791;" cx="104.835" cy="37.928" rx="5.761" ry="3.687"/>
		<path style="opacity:0.5;fill-rule:evenodd;clip-rule:evenodd;fill:#F5F0F0;" d="M101.396,3.969
			C80.137,20.224,66.187,52.334,63.58,80.903c-0.171-0.077-0.342-0.154-0.513-0.233c-16.151-7.464-28.445-19.848-35.899-34.504
			C39.184,22.884,70.318-11.784,101.396,3.969z"/>
		
			<ellipse transform="matrix(-0.0172 -0.9999 0.9999 -0.0172 92.8409 159.3145)" style="fill-rule:evenodd;clip-rule:evenodd;fill:#323232;" cx="124.719" cy="34.029" rx="2.467" ry="1.41"/>
		<path style="fill-rule:evenodd;clip-rule:evenodd;fill:#C79369;" d="M128.533,41.841c-3.143,0.021-6.258-0.108-8.298-0.388
			c1.676,1.943,3.99,3.189,6.43,3.72C127.394,44.129,128.02,43.014,128.533,41.841z"/>
		<g>
			<polygon style="fill-rule:evenodd;clip-rule:evenodd;fill:#323232;" points="105.465,146.724 108.645,126.74 110.921,114.072 
				111.673,109.849 126.238,112.489 118.317,147.226 			"/>
			<polygon style="fill-rule:evenodd;clip-rule:evenodd;fill:#323232;" points="111.673,109.849 111.876,109.886 110.921,114.074 
				110.921,114.072 			"/>
		</g>
		<g>
			<path style="fill-rule:evenodd;clip-rule:evenodd;fill:#323232;" d="M121.803,181.829l-16.338-35.104l12.508-2.89l12.142,34.656
				C127.345,179.603,124.574,180.716,121.803,181.829z"/>
			
				<ellipse transform="matrix(-0.3726 -0.928 0.928 -0.3726 -2.202 363.7972)" style="fill-rule:evenodd;clip-rule:evenodd;fill:#1A1A1A;" cx="121.872" cy="182.643" rx="4.619" ry="9.196"/>
		</g>
		
			<rect x="145.233" y="59.117" transform="matrix(-0.8939 -0.4482 0.4482 -0.8939 257.4265 184.808)" style="fill-rule:evenodd;clip-rule:evenodd;fill:#F5F0F0;" width="10.696" height="5.654"/>
		<polygon style="fill-rule:evenodd;clip-rule:evenodd;fill:#1A1A1A;" points="111.114,106.756 133.274,117.868 131.317,122.494 
			108.881,111.245 		"/>
		<polygon style="fill-rule:evenodd;clip-rule:evenodd;fill:#323232;" points="131.971,120.956 155.69,63.769 147.669,61.746 
			123.36,83.913 109.656,109.638 		"/>
		<path style="fill-rule:evenodd;clip-rule:evenodd;fill:#F5F0F0;" d="M147.486,58.563c-9.788,16.721-13.565,25.25-24.34,27.449
			l3.689-7.415l16.115-15.364l4.116-6.214L147.486,58.563z"/>
		<path style="fill-rule:evenodd;clip-rule:evenodd;fill:#323232;" d="M148.31,56.351l-5.528,11.193l-1.377,1.488l-13.313,13.818
			l-8.281,6.813l7.017-11.742l16.123-14.689l3.41-5.459c0.519-0.83,1.625-4.476,1.625-4.476L148.31,56.351z"/>
		<path style="fill-rule:evenodd;clip-rule:evenodd;fill:#1A1A1A;" d="M143.88,66.049c-12.036,6.058-30.882,12.013-47.646,12.453
			l0.219,4.594c15.673,1.674,37.968-1.331,47.764-4.912C155.917,73.907,156.022,59.938,143.88,66.049z"/>
		<g>
			
				<ellipse transform="matrix(0.2525 -0.9676 0.9676 0.2525 77.4662 179.4987)" style="fill-rule:evenodd;clip-rule:evenodd;fill:#E7B791;" cx="154.912" cy="39.61" rx="21.444" ry="22.154"/>
			<path style="fill-rule:evenodd;clip-rule:evenodd;fill:#5E3A1D;" d="M142.83,21.43c1.621,15.764,26.73,28.216,19.569,38.515
				c6.678-2.238,12.078-7.576,13.948-14.74c2.99-11.458-4.182-23.253-16.021-26.342C154.097,17.237,147.819,18.346,142.83,21.43z"/>
			
				<ellipse transform="matrix(0.4645 -0.8856 0.8856 0.4645 45.6404 165.1565)" style="fill-rule:evenodd;clip-rule:evenodd;fill:#E7B791;" cx="159.379" cy="44.841" rx="6.317" ry="4.043"/>
			
				<ellipse transform="matrix(0.2525 -0.9676 0.9676 0.2525 69.6562 161.2579)" style="fill-rule:evenodd;clip-rule:evenodd;fill:#323232;" cx="139.198" cy="35.546" rx="2.705" ry="1.546"/>
			<path style="fill-rule:evenodd;clip-rule:evenodd;fill:#C79369;" d="M133.115,42.884c3.343,0.835,6.696,1.502,8.943,1.732
				c-2.288,1.638-5.077,2.367-7.814,2.302C133.737,45.618,133.357,44.267,133.115,42.884z"/>
		</g>
		<path style="fill-rule:evenodd;clip-rule:evenodd;fill:#E7B791;" d="M99.264,74.107c-1.668-0.931-2.61-0.402-2.813,0.934
			c-2.276-1.682-3.575,1.662-4.298,2.959c-1.406,2.523-1.412,3.337,2.017,5.248c3.431,1.911,7.351,1.415,8.758-1.109
			C104.333,79.614,102.694,76.018,99.264,74.107z"/>
		<path style="fill-rule:evenodd;clip-rule:evenodd;fill:#E7B791;" d="M153.381,62.857c1.491,0.374,1.754,1.203,1.137,2.099
			c2.262,0.269,1.181,2.945,0.891,4.104c-0.566,2.257-1.012,2.737-4.077,1.969c-3.065-0.77-5.092-3.223-4.525-5.479
			C147.372,63.293,150.316,62.087,153.381,62.857z"/>
		<path style="fill-rule:evenodd;clip-rule:evenodd;fill:#E7B791;" d="M127.658,68.565c4.564,0.316,17.803-2.523,21.995-4.162
			l0.785,3.782c-3.938,2.603-19.686,6.777-24.411,7.659L127.658,68.565z"/>
		<path style="fill-rule:evenodd;clip-rule:evenodd;fill:#E7B791;" d="M108.544,61.707c4.751,1.925,14.031,6.045,20.409,7.361
			l-2.838,6.745c-6.028-0.336-13.492-3.127-17.033-4.104C99.171,68.978,98.147,57.497,108.544,61.707z"/>
		<path style="fill-rule:evenodd;clip-rule:evenodd;fill:#5E3A1D;" d="M170.856,42.565c-10.293-14.854-42.958-14.291-34.405-33.937
			c4.231,8.33,7.14,6.578,16.228,8.91C161.843,19.89,171.776,27.558,170.856,42.565z"/>
		<path style="fill-rule:evenodd;clip-rule:evenodd;fill:#5E3A1D;" d="M171.195,43.663c-7.678-16.361-39.981-21.242-28.277-39.19
			c2.786,8.918,5.945,7.675,14.518,11.487C166.081,19.805,174.599,29.019,171.195,43.663z"/>
		<path style="fill-rule:evenodd;clip-rule:evenodd;fill:#5E3A1D;" d="M138.36,22.073c3.9,3.139,7.354,6.493,10.717,12.463
			c3.696,6.561,24.125-8.397,16.561-13.693C158.072,15.546,148.328,11.096,138.36,22.073z"/>
	</g>
</g>
<g>
</g>
<g>
</g>
<g>
</g>
<g>
</g>
<g>
</g>
<g>
</g>
<g>
</g>
<g>
</g>
<g>
</g>
<g>
</g>
<g>
</g>
<g>
</g>
<g>
</g>
<g>
</g>
<g>
</g>
</svg>
