<svg height="512pt" viewBox="-56 0 511 512" width="512pt" xmlns="http://www.w3.org/2000/svg"><path d="m106.855469 135.398438h12.5625v-10.070313c0-2.5 2.035156-4.535156 4.535156-4.535156h13.085937l37.949219-21.082031c.671875-.375 1.433594-.570313 2.203125-.570313.808594 0 1.605469.214844 2.300782.625 1.378906.8125 2.234374 2.3125 2.234374 3.910156v14.40625l41.007813-20.503906c10.480469-5.125 20.246094-7.722656 29.019531-7.722656 19.304688 0 28.511719 12.46875 30.875 16.289062.441406.71875.679688 1.542969.679688 2.386719v26.867188h12.5625c6.0625 0 11.277344 3.480468 13.753906 8.507812v-50.300781c0-47.554688-38.550781-86.105469-86.105469-86.105469h-44.3125c-47.558593 0-86.105469 38.550781-86.105469 86.105469v50.300781c2.472657-5.027344 7.691407-8.507812 13.753907-8.507812zm0 0" fill="#f39600"/><path d="m106.855469 135.398438h6.984375v-41.792969c0-47.554688 38.550781-86.105469 86.105468-86.105469h-20.738281c-47.558593 0-86.105469 38.550781-86.105469 86.105469v50.300781c2.472657-5.027344 7.691407-8.507812 13.753907-8.507812zm0 0" fill="#ce7a00"/><path d="m108.042969 213.351562c-1.515625 3.765626-2.355469 7.875-2.355469 12.183594 0 10.515625 4.964844 19.863282 12.667969 25.851563 3.316406-.664063 6.746093-1.015625 10.257812-1.015625h7.878907l11.636718-28.011719c-12.878906-9.558594-22.296875-23.15625-26.597656-38.671875h-14.679688c-7.699218 0-14.050781-5.605469-15.113281-12.890625-3.257812 4.484375-5.183593 10-5.183593 15.964844 0 13.0625 9.210937 23.96875 21.488281 26.589843zm0 0" fill="#f39600"/><path d="m108.042969 213.351562c-1.515625 3.765626-2.355469 7.875-2.355469 12.183594 0 10.515625 4.964844 19.863282 12.667969 25.851563 3.316406-.664063 6.746093-1.015625 10.257812-1.015625h7.878907l1.640624-3.945313c-9.847656-4.261719-16.753906-14.066406-16.753906-25.460937 0-3.554688.667969-7.027344 1.992188-10.324219.550781-1.367187.464844-2.910156-.230469-4.210937-.691406-1.300782-1.925781-2.230469-3.367187-2.539063-9.894532-2.113281-17.125-10.828125-17.496094-20.890625-5.535156-1.703125-9.691406-6.425781-10.539063-12.203125-3.257812 4.484375-5.183593 10-5.183593 15.96875 0 13.058594 9.210937 23.964844 21.488281 26.585937zm0 0" fill="#ce7a00"/><path d="m295.871094 183.6875h-14.675782c0-.007812.003907-.015625.003907-.023438-4.292969 15.507813-13.695313 29.101563-26.558594 38.664063l6.382813 15.394531c1.15625-.386718 2.386718-.605468 3.667968-.605468h30.230469c1.363281-3.601563 2.113281-7.503907 2.113281-11.582032 0-4.308594-.839844-8.417968-2.351562-12.183594 12.277344-2.621093 21.488281-13.527343 21.488281-26.589843 0-5.964844-1.929687-11.480469-5.1875-15.964844-1.0625 7.285156-7.414063 12.890625-15.113281 12.890625zm0 0" fill="#f39600"/><path d="m173.519531 293.140625v211.359375h55.6875v-211.355469l-27.84375 82.953125zm0 0" fill="#e0aa68"/><path d="m181.019531 339.050781v157.949219h11.066407v-124.976562zm0 0" fill="#b57a4e"/><path d="m229.207031 281.429688h-55.6875v11.710937l27.84375 82.957031 27.84375-82.953125zm0 0" fill="#fe3745"/><path d="m315.496094 352.886719c-2.074219 1.917969-4.839844 3.101562-7.878906 3.101562h-30.976563l-47.433594 95.421875v53.089844h90.765625c3.183594 0 5.765625-2.570312 5.765625-5.738281v-128.597657zm0 0" fill="#383838"/><path d="m229.207031 451.410156v53.089844h20.632813v-94.589844zm0 0" fill="#282828"/><path d="m264.691406 355.988281c-6.382812 0-11.601562-5.191406-11.601562-11.539062v-95.792969c0-5.070312 3.335937-9.398438 7.933594-10.933594l-6.382813-15.398437c-7.4375 5.527343-16.015625 9.714843-25.433594 12.132812v216.953125l47.433594-95.421875zm0 0" fill="#6d6e71"/><path d="m116.296875 298.992188 20.195313-48.621094h-7.878907c-27.628906 0-50.253906 21.59375-51.5625 48.621094zm0 0" fill="#383838"/><path d="m142.585938 448.640625c0 2.75-2.25 5-5 5h-60.601563v45.121094c0 3.167969 2.582031 5.738281 5.765625 5.738281h90.769531v-53.089844l-30.933593-62.222656zm0 0" fill="#383838"/><path d="m97.898438 298.992188c1.085937-22.375 16.78125-41.007813 37.824218-46.769532l.769532-1.851562h-7.878907c-27.628906 0-50.253906 21.589844-51.5625 48.621094zm0 0" fill="#282828"/><path d="m97.839844 498.761719v-45.121094h-20.851563v45.121094c0 3.167969 2.578125 5.738281 5.761719 5.738281h20.851562c-3.183593 0-5.761718-2.570312-5.761718-5.738281zm0 0" fill="#282828"/><path d="m148.128906 222.355469-31.832031 76.636719h21.289063c2.75 0 5 2.25 5 5v85.195312l30.933593 62.222656v-216.957031c-9.40625-2.410156-17.96875-6.585937-25.390625-12.097656zm0 0" fill="#6d6e71"/><g fill="#ffe2b8"><path d="m118.917969 164.558594v-29.160156h-12.0625c-8.445313 0-15.289063 6.734374-15.289063 15.042968v18.203125c0 8.308594 6.84375 15.042969 15.289063 15.042969h14.675781c-1.699219-6.125-2.613281-12.542969-2.613281-19.128906zm0 0"/><path d="m295.871094 135.398438h-12.0625v29.160156c0 6.585937-.914063 13.003906-2.613282 19.128906h14.675782c8.445312 0 15.289062-6.734375 15.289062-15.042969v-18.203125c-.003906-8.308594-6.84375-15.042968-15.289062-15.042968zm0 0"/><path d="m283.054688 105.882812c-2.398438-3.875-11.734376-16.527343-31.300782-16.527343-8.851562 0-18.675781 2.609375-29.242187 7.777343l-40.28125 20.140626v-13.597657c0-1.785156-.945313-3.4375-2.484375-4.339843-.785156-.464844-1.667969-.695313-2.554688-.695313-.839844 0-1.683594.210937-2.441406.632813l-37.839844 21.023437h-12.957031c-2.78125 0-5.035156 2.253906-5.035156 5.035156v39.226563c0 32.910156 22.453125 61.652344 54.601562 69.898437v46.972657h55.691407v-46.972657c32.144531-8.246093 54.597656-36.988281 54.597656-69.898437v-56.027344c0-.933594-.261719-1.851562-.753906-2.648438zm0 0"/></g><path d="m190.4375 281.429688v-57.328126c-32.148438-8.246093-54.597656-36.988281-54.597656-69.898437v-33.910156h-11.886719c-2.78125 0-5.035156 2.257812-5.035156 5.035156v39.230469c0 32.90625 22.453125 61.648437 54.601562 69.894531v46.976563zm0 0" fill="#ffc987"/><path d="m201.363281 217.066406c-15.617187 0-28.328125-12.566406-28.328125-28.007812 0-2.929688 2.414063-5.316406 5.378906-5.316406h45.898438c2.964844 0 5.375 2.386718 5.375 5.316406.003906 15.441406-12.703125 28.007812-28.324219 28.007812zm0 0" fill="#ffa05f"/><path d="m193.839844 189.058594c0-2.929688 2.414062-5.316406 5.378906-5.316406h-20.804688c-2.964843 0-5.378906 2.386718-5.378906 5.316406 0 15.441406 12.710938 28.007812 28.328125 28.007812 3.671875 0 7.179688-.703125 10.402344-1.964844-10.488281-4.109374-17.925781-14.230468-17.925781-26.042968zm0 0" fill="#ff812c"/><path d="m137.585938 298.992188h-107.183594c-2.75 0-5 2.25-5 5v69.128906h15.691406c5.160156 0 9.359375 4.171875 9.359375 9.296875v3.824219c0 2.871093-1.316406 5.441406-3.386719 7.152343 2.070313 1.707031 3.386719 4.277344 3.386719 7.148438v3.824219c0 2.875-1.316406 5.445312-3.386719 7.152343 2.070313 1.707031 3.386719 4.277344 3.386719 7.148438v3.824219c0 5.128906-4.199219 9.296874-9.359375 9.296874h-15.691406v16.851563c0 2.75 2.25 5 5 5h107.183594c2.75 0 5-2.25 5-5v-144.648437c0-2.75-2.25-5-5-5zm0 0" fill="#e0e0e0"/><path d="m41.09375 373.121094c1.730469 0 3.351562.480468 4.746094 1.296875v-70.425781c0-2.75 2.25-5 5-5h-20.4375c-2.75 0-5 2.25-5 5v69.128906zm0 0" fill="#c7c8ca"/><path d="m45.839844 448.640625v-18.144531c-1.398438.816406-3.015625 1.292968-4.746094 1.292968h-15.691406v16.851563c0 2.75 2.25 5 5 5h20.4375c-2.75 0-5-2.25-5-5zm0 0" fill="#c7c8ca"/><path d="m99.945312 349.195312c0-8.765624-7.140624-15.871093-15.953124-15.871093-8.808594 0-15.953126 7.105469-15.953126 15.871093 0 8.765626 7.144532 15.867188 15.953126 15.867188 8.8125 0 15.953124-7.101562 15.953124-15.867188zm0 0" fill="#8a8c8e"/><path d="m17.363281 431.789062c-5.164062 0-9.363281-4.167968-9.363281-9.292968v-40.078125c0-5.125 4.199219-9.296875 9.363281-9.296875h23.730469c5.164062 0 9.359375 4.171875 9.359375 9.296875v3.824219c0 2.871093-1.316406 5.441406-3.386719 7.152343 2.070313 1.707031 3.386719 4.277344 3.386719 7.148438v3.824219c0 2.875-1.316406 5.445312-3.386719 7.152343 2.070313 1.707031 3.386719 4.277344 3.386719 7.148438v3.824219c0 5.128906-4.195313 9.296874-9.359375 9.296874zm0 0" fill="#ffe2b8"/><path d="m25.839844 422.496094v-40.078125c0-5.125 4.195312-9.296875 9.359375-9.296875h-17.835938c-5.164062 0-9.363281 4.171875-9.363281 9.296875v40.078125c0 5.125 4.199219 9.292968 9.363281 9.292968h17.835938c-5.164063 0-9.359375-4.167968-9.359375-9.292968zm0 0" fill="#ffc987"/><path d="m308.441406 340.984375h-2.296875c-5.164062 0-9.359375-4.167969-9.359375-9.292969v-3.824218c0-2.875 1.316406-5.445313 3.382813-7.152344-2.066407-1.707032-3.382813-4.28125-3.382813-7.152344v-3.824219c0-2.871093 1.316406-5.445312 3.382813-7.148437-2.066407-1.707032-3.382813-4.28125-3.382813-7.152344v-3.824219c0-5.125 4.195313-9.296875 9.359375-9.296875h13.078125v-33.65625c0-6.347656-5.21875-11.542968-11.605468-11.542968h-42.925782c-6.382812 0-11.601562 5.195312-11.601562 11.542968v95.789063c0 6.351562 5.21875 11.542969 11.601562 11.542969h42.925782c3.039062 0 5.804687-1.1875 7.878906-3.101563zm0 0" fill="#c7c8ca"/><path d="m273.839844 344.449219v-95.792969c0-6.347656 5.21875-11.539062 11.601562-11.539062h-20.75c-6.378906 0-11.601562 5.191406-11.601562 11.539062v95.792969c0 6.347656 5.222656 11.539062 11.601562 11.539062h20.75c-6.382812 0-11.601562-5.191406-11.601562-11.539062zm0 0" fill="#a7a9ac"/><path d="m388.039062 380.832031-48.804687-82.46875v33.328125c0 5.125-4.199219 9.292969-9.363281 9.292969h-21.433594l38.066406 64.210937c6.761719 11.410157 21.542969 15.203126 33.015625 8.476563 11.464844-6.726563 15.28125-21.433594 8.519531-32.839844zm0 0" fill="#383838"/><path d="m362.164062 399.984375-34.972656-59h-18.753906l38.066406 64.210937c6.761719 11.410157 21.542969 15.203126 33.015625 8.476563.980469-.574219 1.898438-1.210937 2.765625-1.898437-8.015625-.21875-15.746094-4.410157-20.121094-11.789063zm0 0" fill="#282828"/><path d="m329.871094 282.316406c5.164062 0 9.363281 4.167969 9.363281 9.296875v40.078125c0 5.125-4.199219 9.292969-9.363281 9.292969h-23.730469c-5.160156 0-9.359375-4.167969-9.359375-9.292969v-3.824218c0-2.875 1.316406-5.445313 3.386719-7.152344-2.066407-1.707032-3.386719-4.28125-3.386719-7.152344v-3.824219c0-2.871093 1.316406-5.445312 3.386719-7.148437-2.066407-1.707032-3.386719-4.28125-3.386719-7.152344v-3.824219c0-5.125 4.199219-9.296875 9.359375-9.296875zm0 0" fill="#ffe2b8"/><path d="m314.386719 331.691406v-3.824218c0-2.875 1.3125-5.445313 3.382812-7.152344-2.066406-1.707032-3.382812-4.28125-3.382812-7.152344v-3.824219c0-2.871093 1.3125-5.445312 3.382812-7.148437-2.066406-1.707032-3.382812-4.28125-3.382812-7.152344v-3.824219c0-5.125 4.195312-9.296875 9.355469-9.296875h-17.601563c-5.160156 0-9.359375 4.171875-9.359375 9.296875v3.824219c0 2.871094 1.316406 5.445312 3.386719 7.152344-2.066407 1.703125-3.386719 4.277344-3.386719 7.148437v3.824219c0 2.871094 1.316406 5.445312 3.386719 7.152344-2.066407 1.707031-3.386719 4.277344-3.386719 7.152344v3.824218c0 5.125 4.199219 9.292969 9.359375 9.292969h17.601563c-5.160157 0-9.355469-4.167969-9.355469-9.292969zm0 0" fill="#ffc987"/><path d="m166.894531 134.394531c0-4.140625-3.355469-7.5-7.5-7.5-4.140625 0-7.5 3.359375-7.5 7.5v13.730469c0 4.144531 3.359375 7.5 7.5 7.5 4.144531 0 7.5-3.355469 7.5-7.5zm0 0"/><path d="m243.328125 126.894531c-4.140625 0-7.5 3.359375-7.5 7.5v13.734375c0 4.140625 3.359375 7.5 7.5 7.5 4.144531 0 7.5-3.359375 7.5-7.5v-13.734375c0-4.140625-3.355469-7.5-7.5-7.5zm0 0"/><path d="m198.945312 167.007812h9.054688c4.144531 0 7.5-3.359374 7.5-7.5 0-4.144531-3.355469-7.5-7.5-7.5h-5.773438v-11.570312c0-4.144531-3.355468-7.5-7.5-7.5-4.140624 0-7.5 3.355469-7.5 7.5v14.894531c0 6.4375 5.257813 11.675781 11.71875 11.675781zm0 0"/><path d="m224.3125 176.242188h-45.894531c-7.101563 0-12.882813 5.75-12.882813 12.816406 0 19.578125 16.074219 35.507812 35.832032 35.507812 19.753906 0 35.824218-15.929687 35.824218-35.507812 0-7.066406-5.78125-12.816406-12.878906-12.816406zm-22.949219 33.324218c-10.734375 0-19.601562-8.039062-20.710937-18.324218h41.417968c-1.105468 10.285156-9.96875 18.324218-20.707031 18.324218zm0 0"/><path d="m83.992188 325.828125c-12.929688 0-23.453126 10.480469-23.453126 23.367187 0 12.886719 10.523438 23.367188 23.453126 23.367188 12.933593 0 23.453124-10.480469 23.453124-23.367188 0-12.886718-10.519531-23.367187-23.453124-23.367187zm0 31.738281c-4.65625 0-8.453126-3.753906-8.453126-8.371094 0-4.613281 3.796876-8.367187 8.453126-8.367187 4.664062 0 8.453124 3.753906 8.453124 8.367187 0 4.613282-3.789062 8.371094-8.453124 8.371094zm0 0"/><path d="m293.65625 268.277344v-8.078125c0-4.144531-3.355469-7.5-7.5-7.5s-7.5 3.355469-7.5 7.5v8.078125c0 4.144531 3.355469 7.5 7.5 7.5s7.5-3.355469 7.5-7.5zm0 0"/><path d="m394.492188 377.011719-47.757813-80.699219v-4.699219c0-9.261719-7.5625-16.796875-16.863281-16.796875h-3.148438v-26.15625c0-10.5-8.570312-19.042968-19.105468-19.042968h-3.3125c.136718-1.34375.230468-2.699219.230468-4.082032 0-2.511718-.230468-4.996094-.691406-7.433594 11.839844-5.652343 19.824219-17.804687 19.824219-31.339843 0-6.5625-1.839844-12.699219-5.019531-17.9375 0-.0625.007812-.117188.007812-.179688v-18.203125c0-2.863281-.546875-5.597656-1.53125-8.117187v-48.71875c0-51.613281-41.992188-93.605469-93.605469-93.605469h-44.3125c-51.613281 0-93.605469 41.992188-93.605469 93.605469v48.71875c-.988281 2.519531-1.535156 5.253906-1.535156 8.117187v18.203125c0 .058594.007813.117188.007813.175781-3.179688 5.238282-5.019531 11.378907-5.019531 17.941407 0 13.535156 7.984374 25.683593 19.824218 31.335937-.457031 2.441406-.6875 4.925782-.6875 7.4375 0 8.226563 2.484375 15.882813 6.742188 22.261719-17.882813 7.78125-31.15625 24.085937-34.566406 43.695313h-39.964844c-6.890625 0-12.5 5.605468-12.5 12.5v61.628906h-.539063c-9.296875 0-16.863281 7.535156-16.863281 16.796875v40.078125c0 9.261718 7.566406 16.792968 16.863281 16.792968h.539063v9.351563c0 6.894531 5.609375 12.5 12.5 12.5h39.082031v37.621094c0 7.300781 5.949219 13.238281 13.265625 13.238281h237.222656c7.3125 0 13.265625-5.9375 13.265625-13.238281v-24.761719c0-4.144531-3.355469-7.5-7.5-7.5-4.140625 0-7.5 3.355469-7.5 7.5v23h-81.53125v-43.828125l44.582031-89.683594h26.328126c1.746093 0 3.433593-.242187 5.035156-.683593l5.585937 9.417968v65.777344c0 4.144531 3.355469 7.5 7.5 7.5s7.5-3.355469 7.5-7.5v-40.476562l6.8125 11.496093c5.660157 9.546875 16.097657 15.480469 27.242188 15.480469 5.617187 0 11.15625-1.507812 16.023437-4.359375 7.289063-4.277344 12.460938-11.125 14.570313-19.289063 2.097656-8.136718.894531-16.609374-3.394531-23.839843zm-101.375-170.996094c-2.164063.460937-4.015626 1.855469-5.054688 3.808594-1.042969 1.953125-1.164062 4.265625-.339844 6.320312 1.203125 2.996094 1.8125 6.15625 1.8125 9.390625 0 1.390625-.125 2.753906-.34375 4.082032h-23.410156l-2.058594-4.964844c10.378906-8.976563 18.320313-20.5 22.957032-33.464844h9.191406c4.738281 0 9.128906-1.457031 12.777344-3.917969-.238282 9.019531-6.683594 16.859375-15.53125 18.746094zm10.539062-37.371094c0 4.160157-3.492188 7.542969-7.785156 7.542969h-5.433594c.566406-3.808594.867188-7.691406.867188-11.628906v-21.660156h4.566406c4.292968 0 7.785156 3.382812 7.785156 7.542968zm-204.589844-18.203125c0-4.160156 3.492188-7.542968 7.785156-7.542968h4.566407v21.660156c0 3.9375.304687 7.820312.867187 11.628906h-5.433594c-4.292968 0-7.785156-3.382812-7.785156-7.542969zm-4.992187 36.828125c3.648437 2.460938 8.039062 3.917969 12.777343 3.917969h9.191407c4.640625 12.976562 12.597656 24.511719 22.996093 33.496094l-7.554687 18.1875h-2.871094c-2.707031 0-5.363281.195312-7.972656.542968-4.601563-4.566406-7.453125-10.894531-7.453125-17.878906 0-3.234375.609375-6.394531 1.8125-9.390625.824219-2.054687.703125-4.367187-.339844-6.320312-1.039062-1.953125-2.890625-3.347657-5.054687-3.808594-8.84375-1.886719-15.292969-9.726563-15.53125-18.746094zm31.121093 70.746094-13.90625 33.476563h-25.625c4.328126-18.183594 20.199219-32.007813 39.53125-33.476563zm-107.832031 166.273437c-1.027343 0-1.863281-.804687-1.863281-1.792968v-40.078125c0-.988281.835938-1.796875 1.863281-1.796875h23.730469c1.023438 0 1.859375.808594 1.859375 1.796875v3.824219c0 .714843-.414063 1.164062-.660156 1.367187-1.726563 1.425781-2.726563 3.546875-2.726563 5.785156s1 4.359375 2.730469 5.78125c.242187.203125.65625.652344.65625 1.367188v3.824219c0 .71875-.414063 1.164062-.65625 1.367187-1.730469 1.425781-2.730469 3.546875-2.730469 5.785156 0 2.242188 1 4.363281 2.730469 5.785157.242187.203124.65625.648437.65625 1.363281v3.824219c0 .992187-.835937 1.796874-1.859375 1.796874zm148.65625 72.710938h-81.53125v-35.859375h53.097657c6.894531 0 12.5-5.605469 12.5-12.5v-27.519531l15.933593 32.050781zm0-215.570312v138.046874l-15.933593-32.050781v-29.425781c0-4.144531-3.355469-7.5-7.5-7.5-4.144532 0-7.5 3.355469-7.5 7.5v88.140625h-102.183594v-6.851563h8.191406c9.296875 0 16.859375-7.53125 16.859375-16.792968v-3.824219c0-2.511719-.558594-4.945313-1.601563-7.152344 1.042969-2.207031 1.601563-4.640625 1.601563-7.148437v-3.824219c0-2.511719-.558594-4.945313-1.601563-7.152344 1.042969-2.207031 1.601563-4.640625 1.601563-7.152343v-3.820313c0-9.265625-7.5625-16.796875-16.859375-16.796875h-8.191406v-59.132812h102.183594v16.507812c0 4.144531 3.355468 7.5 7.5 7.5 4.144531 0 7.5-3.355469 7.5-7.5v-19.007812c0-6.894532-5.605469-12.5-12.5-12.5h-10.054688l24.058594-57.914063c4.523437 2.59375 9.351562 4.773437 14.429687 6.476563zm55.6875 215.570312h-40.691406v-157.949219l13.238281 39.433594c1.023438 3.054687 3.886719 5.113281 7.109375 5.113281 3.222657 0 6.085938-2.0625 7.109375-5.113281l13.234375-39.425781zm0-205.082031-20.34375 60.609375-20.347656-60.613282v-2.984374h40.691406zm5.636719-64.726563c-3.316406.851563-5.636719 3.839844-5.636719 7.265625v39.472657h-40.691406v-39.476563c0-3.421875-2.316406-6.414063-5.636719-7.261719-28.828125-7.394531-48.960937-33.152344-48.960937-62.632812v-36.765625h10.488281c1.277344 0 2.53125-.324219 3.644531-.941407l34.175781-18.988281v9.410157c0 2.597656 1.347657 5.011718 3.558594 6.378906 2.210938 1.367187 4.972656 1.492187 7.296875.328125l28.609375-14.304688c3.703125-1.855469 5.207032-6.359375 3.355469-10.0625-1.855469-3.707031-6.355469-5.207031-10.066406-3.355469l-17.753907 8.878907v-1.460938c0-4.421875-2.367187-8.5625-6.183593-10.808593-3.761719-2.210938-8.644531-2.261719-12.4375-.152344l-36.140625 20.078125h-11.011719c-6.914063 0-12.535156 5.625-12.535156 12.535156v2.570313h-4.566407c-2.167968 0-4.265624.308593-6.253906.871093v-35.164062c.003906-43.34375 35.265625-78.605469 78.609375-78.605469h44.3125c43.34375 0 78.605469 35.261719 78.605469 78.605469v35.164062c-1.988281-.5625-4.085938-.871093-6.253906-.871093h-4.5625v-19.367188c0-2.328125-.648438-4.605469-1.875-6.59375-2.910156-4.710938-14.234375-20.082031-37.679688-20.082031-2.9375 0-6 .25-9.101562.746093-4.089844.652344-6.875 4.5-6.222656 8.589844.65625 4.089844 4.5 6.867188 8.59375 6.222656 2.316406-.371093 4.582031-.558593 6.730468-.558593 14.808594 0 22.191406 8.851562 24.550782 12.394531v55.308594c.003906 29.480468-20.132813 55.238281-48.960938 62.632812zm9.363281 192.285156v-179.417968c5.09375-1.707032 9.933594-3.898438 14.472657-6.5l.5 1.203125c-3.738282 3.476562-6.089844 8.414062-6.089844 13.894531v95.792969c0 10.449219 8.488281 18.949219 18.953125 19.03125zm27.984375-70.988281c-2.222656 0-4.101562-1.847656-4.101562-4.039062v-95.792969c0-2.1875 1.878906-4.039062 4.101562-4.039062h42.925782c2.226562 0 4.105468 1.851562 4.105468 4.039062v26.160156h-5.578125c-9.296875 0-16.859375 7.535156-16.859375 16.796875v3.820313c0 2.511718.554688 4.945312 1.601563 7.152344-1.046875 2.207031-1.601563 4.640624-1.601563 7.152343v3.824219c0 2.507812.554688 4.941406 1.601563 7.148438-1.046875 2.210937-1.601563 4.644531-1.601563 7.152343v3.824219c0 8.566406 6.472656 15.640625 14.800782 16.65625l.085937.144531zm41.453125-15.003906c-1.027343 0-1.859375-.804687-1.859375-1.792969v-3.824218c0-.71875.414063-1.167969.660156-1.371094 1.726563-1.425782 2.722657-3.546875 2.722657-5.78125 0-2.238282-.996094-4.359375-2.722657-5.785156-.246093-.203126-.660156-.652344-.660156-1.367188v-3.824219c0-.714843.410156-1.164062.65625-1.363281 1.726563-1.425781 2.726563-3.546875 2.726563-5.785156 0-2.242188-1-4.363282-2.726563-5.789063-.246094-.199219-.65625-.648437-.65625-1.363281v-3.824219c0-.988281.832032-1.796875 1.859375-1.796875h23.726563c1.03125 0 1.867187.808594 1.867187 1.796875v40.078125c0 .992188-.835937 1.796875-1.867187 1.796875h-23.726563zm77.214844 63.617187c-1.101563 4.273438-3.8125 7.859376-7.636719 10.101563-2.5625 1.5-5.476562 2.296875-8.429687 2.296875-5.875 0-11.367188-3.113281-14.339844-8.128906l-31.351563-52.886719h8.269532c9.296875 0 16.863281-7.53125 16.863281-16.792969v-5.929687l34.851563 58.894531c2.242187 3.777344 2.871093 8.199219 1.773437 12.445312zm0 0"/></svg>